<?xml version="1.0" encoding="UTF-8"?>
<svg width="28px" height="24px" viewBox="0 0 28 24" version="1.1" xmlns="http://www.w3.org/2000/svg" xmlns:xlink="http://www.w3.org/1999/xlink">
  <path fill="rgba(76,76,76,.8)" fill-rule="nonzero" d="M26,0 L24,2 L24,6 L20,6 L20,2 L18,0 L16,2 L16,6 L12,6 L12,2 L10,0 L8,2 L8,6 L4,6 L4,2 L2,0 L0,2 L0,24 L4,24 L4,20 L8,20 L8,24 L12,24 L12,20 L16,20 L16,24 L20,24 L20,20 L24,20 L24,24 L28,24 L28,2 L26,0 Z M4,18 L4,8 L8,8 L8,18 L4,18 Z M12,18 L12,8 L16,8 L16,18 L12,18 Z M20,18 L20,8 L24,8 L24,18 L20,18 Z"></path>
</svg>
