<?xml version="1.0" encoding="UTF-8"?>
<svg width="7px" height="7px" viewBox="0 0 7 7" version="1.1" xmlns="http://www.w3.org/2000/svg" xmlns:xlink="http://www.w3.org/1999/xlink">
    <!-- Generator: Sketch 54.1 (76490) - https://sketchapp.com -->
    <title>Grey Fence</title>
    <desc>Created with Sketch.</desc>
    <defs>
        <path d="M5.5,0 L5,1 L5,2 L4,2 L4,1 L3.5,0 L3,1 L3,2 L2,2 L2,1 L1.5,0 L1,1 L1,2 L0,2 L0,1 L-0.5,0 L-1,1 L-1,7 L0,7 L0,6 L1,6 L1,7 L2,7 L2,6 L3,6 L3,7 L4,7 L4,6 L5,6 L5,7 L6,7 L6,1 L5.5,0 Z M0,5 L0,3 L1,3 L1,5 L0,5 Z M2,5 L2,3 L3,3 L3,5 L2,5 Z M4,5 L4,3 L5,3 L5,5 L4,5 Z" id="path-1"></path>
    </defs>
    <g id="Symbols" stroke="none" stroke-width="1" fill="none" fill-rule="evenodd">
        <g id="Badge---17x17" transform="translate(-5.000000, -5.000000)">
            <g id="Group-Copy">
                <g id="Grey-Fence" transform="translate(6.000000, 5.000000)">
                    <mask id="mask-2" fill="white">
                        <use xlink:href="#path-1"></use>
                    </mask>
                    <use id="Shape" fill="#FFFFFF" xlink:href="#path-1"></use>
                </g>
            </g>
        </g>
    </g>
</svg>