<svg id="continue-md.svg" xmlns="http://www.w3.org/2000/svg" xmlns:xlink="http://www.w3.org/1999/xlink" width="362" height="56" viewBox="0 0 362 56">
  <defs>
    <style>
      .cls-1 {
        fill: #20123a;
        filter: url(#filter);
      }

      .cls-2 {
        fill: #fff;
        fill-rule: evenodd;
      }
    </style>
    <filter id="filter" x="0" y="0" width="362" height="56" filterUnits="userSpaceOnUse">
      <feFlood result="flood" flood-color="#4267b3"/>
      <feComposite result="composite" operator="in" in2="SourceGraphic"/>
      <feBlend result="blend" in2="SourceGraphic"/>
    </filter>
  </defs>
  <rect id="Rounded_Rectangle_1_copy" data-name="Rounded Rectangle 1 copy" class="cls-1" width="362" height="56" rx="6" ry="6"/>
  <path id="Continue_with_Facebook" data-name="Continue with Facebook" class="cls-2" d="M178.068,292.987a6.927,6.927,0,0,0-.806-2.678,6.477,6.477,0,0,0-1.7-1.989,7.592,7.592,0,0,0-2.431-1.248,9.832,9.832,0,0,0-2.938-.429,8.63,8.63,0,0,0-3.731.78,8.354,8.354,0,0,0-2.8,2.106,9.348,9.348,0,0,0-1.755,3.094,11.856,11.856,0,0,0,0,7.514,9.348,9.348,0,0,0,1.755,3.094,8.2,8.2,0,0,0,2.8,2.093,8.759,8.759,0,0,0,3.731.767,8.467,8.467,0,0,0,3.094-.546A7.3,7.3,0,0,0,175.728,304a7.452,7.452,0,0,0,1.651-2.379,8.8,8.8,0,0,0,.715-3.042h-3.172a7.4,7.4,0,0,1-.442,1.9,4.885,4.885,0,0,1-.936,1.547,4.279,4.279,0,0,1-1.43,1.04,4.626,4.626,0,0,1-1.924.377,5.2,5.2,0,0,1-2.561-.6,5.034,5.034,0,0,1-1.755-1.6,7.213,7.213,0,0,1-1-2.275,10.562,10.562,0,0,1,0-5.2,7.213,7.213,0,0,1,1-2.275,5.034,5.034,0,0,1,1.755-1.6,5.2,5.2,0,0,1,2.561-.6,5.3,5.3,0,0,1,1.781.273,4.165,4.165,0,0,1,1.339.767,4.1,4.1,0,0,1,.936,1.17,6.593,6.593,0,0,1,.572,1.482h3.25Zm11.479,12.493a6.132,6.132,0,0,0,2.132-1.469,6.3,6.3,0,0,0,1.326-2.236,9.134,9.134,0,0,0,0-5.694,6.3,6.3,0,0,0-1.326-2.236,6.132,6.132,0,0,0-2.132-1.469,8.01,8.01,0,0,0-5.746,0,6.113,6.113,0,0,0-2.132,1.469,6.27,6.27,0,0,0-1.326,2.236,9.134,9.134,0,0,0,0,5.694,6.27,6.27,0,0,0,1.326,2.236,6.113,6.113,0,0,0,2.132,1.469A8.01,8.01,0,0,0,189.547,305.48Zm-4.589-2.223a3.6,3.6,0,0,1-1.2-1.092,4.765,4.765,0,0,1-.689-1.521,6.823,6.823,0,0,1,0-3.445,4.593,4.593,0,0,1,.689-1.521,3.662,3.662,0,0,1,1.2-1.079,3.747,3.747,0,0,1,3.432,0,3.672,3.672,0,0,1,1.2,1.079,4.613,4.613,0,0,1,.689,1.521,6.823,6.823,0,0,1,0,3.445,4.787,4.787,0,0,1-.689,1.521,3.612,3.612,0,0,1-1.2,1.092A3.747,3.747,0,0,1,184.958,303.257Zm10.842,2.392h2.964v-7.93a4.037,4.037,0,0,1,.234-1.378,3.539,3.539,0,0,1,.65-1.131,2.922,2.922,0,0,1,1.014-.754,3.217,3.217,0,0,1,1.352-.273,2.454,2.454,0,0,1,1.95.715,3.656,3.656,0,0,1,.676,2.3v8.45H207.6v-9.23a4.381,4.381,0,0,0-1.274-3.432,5.025,5.025,0,0,0-3.484-1.144,4.708,4.708,0,0,0-2.418.637,4.97,4.97,0,0,0-1.768,1.755l-0.052-.052v-1.976H195.8v13.442Zm13.441-11.232h2.236v7.93a8.112,8.112,0,0,0,.169,1.482,2.239,2.239,0,0,0,.546,1.079,2.513,2.513,0,0,0,1.118.65,6.575,6.575,0,0,0,1.885.221,8.878,8.878,0,0,0,.962-0.052q0.468-.052.962-0.1v-2.288a3.123,3.123,0,0,1-.624.091q-0.312.014-.624,0.013a2.113,2.113,0,0,1-.78-0.117,0.867,0.867,0,0,1-.429-0.351,1.4,1.4,0,0,1-.182-0.572,7.153,7.153,0,0,1-.039-0.806v-7.176h2.678v-2.21h-2.678v-4.03h-2.964v4.03h-2.236v2.21Zm9.958-4.524h2.964v-2.808H219.2v2.808Zm0,15.756h2.964V292.207H219.2v13.442Zm6.058,0h2.964v-7.93a4.037,4.037,0,0,1,.234-1.378,3.558,3.558,0,0,1,.65-1.131,2.922,2.922,0,0,1,1.014-.754,3.22,3.22,0,0,1,1.352-.273,2.454,2.454,0,0,1,1.95.715,3.656,3.656,0,0,1,.676,2.3v8.45h2.964v-9.23a4.381,4.381,0,0,0-1.274-3.432,5.023,5.023,0,0,0-3.484-1.144,4.708,4.708,0,0,0-2.418.637,4.978,4.978,0,0,0-1.768,1.755l-0.052-.052v-1.976h-2.808v13.442Zm26.6-13.442h-2.964v7.8a6.025,6.025,0,0,1-.169,1.456,2.946,2.946,0,0,1-.559,1.157,2.759,2.759,0,0,1-1.014.767,3.739,3.739,0,0,1-1.56.286,2.462,2.462,0,0,1-1.9-.728,3.643,3.643,0,0,1-.676-2.5v-8.242h-2.964v8.528a5.764,5.764,0,0,0,1.183,3.965,4.935,4.935,0,0,0,3.835,1.313,4.418,4.418,0,0,0,2.2-.611,4.071,4.071,0,0,0,1.625-1.625h0.052v1.872h2.912V292.207Zm5.3,5.538a3.957,3.957,0,0,1,.3-1.4,3.744,3.744,0,0,1,.728-1.131,3.249,3.249,0,0,1,1.092-.754,3.563,3.563,0,0,1,1.417-.273,3.066,3.066,0,0,1,1.365.3,3.33,3.33,0,0,1,1.04.78,3.6,3.6,0,0,1,.676,1.131,4.743,4.743,0,0,1,.3,1.352h-6.916Zm9.88,1.95a7.665,7.665,0,0,0-.195-2.925,7.092,7.092,0,0,0-1.209-2.509,6.238,6.238,0,0,0-2.093-1.755,6.02,6.02,0,0,0-2.847-.663,6.1,6.1,0,0,0-4.745,2.119,6.973,6.973,0,0,0-1.3,2.262,8.1,8.1,0,0,0-.455,2.717,9.085,9.085,0,0,0,.429,2.86,6.181,6.181,0,0,0,1.274,2.236,5.821,5.821,0,0,0,2.067,1.456,7.131,7.131,0,0,0,2.808.52,7.284,7.284,0,0,0,2.093-.3,5.929,5.929,0,0,0,1.807-.884,5.573,5.573,0,0,0,2.184-3.393h-2.808a3.305,3.305,0,0,1-1.183,1.677,3.556,3.556,0,0,1-2.093.559,3.685,3.685,0,0,1-1.612-.325,3.208,3.208,0,0,1-1.118-.871,3.742,3.742,0,0,1-.663-1.274,5.172,5.172,0,0,1-.221-1.508h9.88Zm12.168,5.954h3.12l2.47-9.984h0.052l2.5,9.984h3.042l4.212-13.442h-3.016l-2.73,10.036H288.8l-2.418-10.036h-2.99l-2.522,10.036h-0.052l-2.626-10.036h-3.146Zm17.238-15.756h2.964v-2.808h-2.964v2.808Zm0,15.756h2.964V292.207h-2.964v13.442Zm4.706-11.232h2.236v7.93a8.112,8.112,0,0,0,.169,1.482,2.239,2.239,0,0,0,.546,1.079,2.513,2.513,0,0,0,1.118.65,6.575,6.575,0,0,0,1.885.221,8.878,8.878,0,0,0,.962-0.052q0.468-.052.962-0.1v-2.288a3.123,3.123,0,0,1-.624.091q-0.312.014-.624,0.013a2.113,2.113,0,0,1-.78-0.117,0.867,0.867,0,0,1-.429-0.351,1.4,1.4,0,0,1-.182-0.572,7.153,7.153,0,0,1-.039-0.806v-7.176h2.678v-2.21H306.35v-4.03h-2.964v4.03H301.15v2.21Zm9.88,11.232h2.964v-7.93a4.037,4.037,0,0,1,.234-1.378,3.558,3.558,0,0,1,.65-1.131,2.922,2.922,0,0,1,1.014-.754,3.22,3.22,0,0,1,1.352-.273,2.454,2.454,0,0,1,1.95.715,3.656,3.656,0,0,1,.676,2.3v8.45h2.964v-9.23a4.381,4.381,0,0,0-1.274-3.432,5.023,5.023,0,0,0-3.484-1.144,4.8,4.8,0,0,0-2.405.611,4.315,4.315,0,0,0-1.625,1.521h-0.052v-6.89H311.03v18.564Zm22.308,0h3.25v-8.242h8.4v-2.652h-8.4v-4.862h9.568v-2.808H333.338v18.564Zm26.13-9.906a3.316,3.316,0,0,0-.468-1.807,3.748,3.748,0,0,0-1.235-1.209,5.557,5.557,0,0,0-1.729-.676,9.189,9.189,0,0,0-1.95-.208,11.341,11.341,0,0,0-2.184.208,5.685,5.685,0,0,0-1.911.728,4.307,4.307,0,0,0-1.391,1.378,4.46,4.46,0,0,0-.624,2.158h2.964a2.026,2.026,0,0,1,.91-1.612,3.72,3.72,0,0,1,2.054-.52,7.263,7.263,0,0,1,.936.065,2.916,2.916,0,0,1,.9.26,1.834,1.834,0,0,1,.676.559,1.52,1.52,0,0,1,.273.936,1.328,1.328,0,0,1-.325.975,1.973,1.973,0,0,1-.884.481,7.179,7.179,0,0,1-1.287.221,15.075,15.075,0,0,0-1.534.221q-0.936.1-1.859,0.3a5.387,5.387,0,0,0-1.664.637,3.371,3.371,0,0,0-1.2,1.222,3.986,3.986,0,0,0-.455,2.028,3.755,3.755,0,0,0,.377,1.729,3.485,3.485,0,0,0,1.014,1.222,4.561,4.561,0,0,0,1.469.728,6.107,6.107,0,0,0,1.742.247,8.551,8.551,0,0,0,2.483-.39,5.246,5.246,0,0,0,2.171-1.248,1.811,1.811,0,0,0,.78,1.274,2.861,2.861,0,0,0,1.508.364c0.121,0,.268-0.009.442-0.026s0.346-.044.52-0.078,0.342-.074.507-0.117,0.3-.083.4-0.117v-2.054a1.924,1.924,0,0,1-.416.052H360.17a0.6,0.6,0,0,1-.559-0.234,1.565,1.565,0,0,1-.143-0.78v-6.916Zm-2.964,5.382a2.009,2.009,0,0,1-.338,1.183,2.844,2.844,0,0,1-.845.793,3.557,3.557,0,0,1-1.079.442,4.814,4.814,0,0,1-1.066.13,5.481,5.481,0,0,1-.871-0.078,3.18,3.18,0,0,1-.884-0.273,2.072,2.072,0,0,1-.689-0.533,1.242,1.242,0,0,1-.286-0.832,2.225,2.225,0,0,1,.195-0.975,1.706,1.706,0,0,1,.533-0.65,2.715,2.715,0,0,1,.78-0.39,6.358,6.358,0,0,1,.91-0.221q0.987-.181,1.976-0.273a3.6,3.6,0,0,0,1.664-.533v2.21Zm18.07-4.42a5.185,5.185,0,0,0-.624-2.158,4.778,4.778,0,0,0-1.339-1.508,5.841,5.841,0,0,0-1.872-.9,8.114,8.114,0,0,0-2.223-.3,6.968,6.968,0,0,0-2.9.559,5.832,5.832,0,0,0-2.067,1.534,6.481,6.481,0,0,0-1.248,2.3,9.4,9.4,0,0,0-.416,2.834,8.583,8.583,0,0,0,.429,2.756,6.178,6.178,0,0,0,1.261,2.2,5.918,5.918,0,0,0,2.041,1.456,6.875,6.875,0,0,0,2.795.533,6.071,6.071,0,0,0,4.173-1.391,6.516,6.516,0,0,0,1.989-4.017H371.61a3.748,3.748,0,0,1-1.053,2.262,2.986,2.986,0,0,1-2.145.806,3.138,3.138,0,0,1-1.638-.4,3.383,3.383,0,0,1-1.105-1.053,4.543,4.543,0,0,1-.624-1.482,7.27,7.27,0,0,1-.195-1.664,7.048,7.048,0,0,1,.364-2.483,4.067,4.067,0,0,1,.91-1.482,2.9,2.9,0,0,1,1.2-.728,4.256,4.256,0,0,1,1.222-.195,3.264,3.264,0,0,1,2.067.637,2.784,2.784,0,0,1,1,1.885h2.964Zm4.6,1.04a3.935,3.935,0,0,1,.3-1.4,3.725,3.725,0,0,1,.728-1.131,3.229,3.229,0,0,1,1.092-.754,3.559,3.559,0,0,1,1.417-.273,3.072,3.072,0,0,1,1.365.3,3.341,3.341,0,0,1,1.04.78,3.616,3.616,0,0,1,.676,1.131,4.812,4.812,0,0,1,.3,1.352h-6.916Zm9.88,1.95a7.705,7.705,0,0,0-.195-2.925,7.126,7.126,0,0,0-1.209-2.509,6.257,6.257,0,0,0-2.093-1.755,6.026,6.026,0,0,0-2.847-.663,6.1,6.1,0,0,0-4.745,2.119,6.937,6.937,0,0,0-1.3,2.262,8.076,8.076,0,0,0-.455,2.717,9.085,9.085,0,0,0,.429,2.86,6.166,6.166,0,0,0,1.274,2.236,5.8,5.8,0,0,0,2.067,1.456,7.125,7.125,0,0,0,2.808.52,7.289,7.289,0,0,0,2.093-.3,5.952,5.952,0,0,0,1.807-.884,5.573,5.573,0,0,0,2.184-3.393h-2.808a3.311,3.311,0,0,1-1.183,1.677,3.56,3.56,0,0,1-2.093.559,3.682,3.682,0,0,1-1.612-.325,3.19,3.19,0,0,1-1.118-.871,3.707,3.707,0,0,1-.663-1.274,5.139,5.139,0,0,1-.221-1.508h9.88Zm2.21,5.954h2.808V303.8h0.052a3.277,3.277,0,0,0,.845,1.092,4.5,4.5,0,0,0,1.131.676,5.172,5.172,0,0,0,1.313.351,10.524,10.524,0,0,0,1.365.091,5.2,5.2,0,0,0,4.381-2.145,6.847,6.847,0,0,0,1.066-2.249,9.841,9.841,0,0,0,.351-2.626,9.637,9.637,0,0,0-.39-2.782,6.66,6.66,0,0,0-1.17-2.275,5.469,5.469,0,0,0-1.963-1.534,6.416,6.416,0,0,0-2.769-.559,4.872,4.872,0,0,0-1.157.143,5.077,5.077,0,0,0-1.118.416,4.682,4.682,0,0,0-.975.663,4.076,4.076,0,0,0-.754.884H394.23v-6.864h-2.964v18.564Zm10.153-4.979a4.384,4.384,0,0,1-.65,1.508,3.632,3.632,0,0,1-1.157,1.079,3.315,3.315,0,0,1-1.716.416,3.368,3.368,0,0,1-1.6-.364,3.694,3.694,0,0,1-1.183-.988,4.217,4.217,0,0,1-.741-1.5,6.875,6.875,0,0,1-.247-1.885,5.735,5.735,0,0,1,.949-3.458,3.267,3.267,0,0,1,2.821-1.3,3.178,3.178,0,0,1,1.612.4,3.629,3.629,0,0,1,1.17,1.066,4.8,4.8,0,0,1,.7,1.521,6.687,6.687,0,0,1,.234,1.768A7.664,7.664,0,0,1,401.419,300.67Zm14.559,4.81a6.122,6.122,0,0,0,2.132-1.469,6.27,6.27,0,0,0,1.326-2.236,9.134,9.134,0,0,0,0-5.694,6.27,6.27,0,0,0-1.326-2.236,6.122,6.122,0,0,0-2.132-1.469,8.01,8.01,0,0,0-5.746,0,6.122,6.122,0,0,0-2.132,1.469,6.27,6.27,0,0,0-1.326,2.236,9.134,9.134,0,0,0,0,5.694,6.27,6.27,0,0,0,1.326,2.236,6.122,6.122,0,0,0,2.132,1.469A8.01,8.01,0,0,0,415.978,305.48Zm-4.589-2.223a3.612,3.612,0,0,1-1.2-1.092,4.765,4.765,0,0,1-.689-1.521,6.823,6.823,0,0,1,0-3.445,4.593,4.593,0,0,1,.689-1.521,3.672,3.672,0,0,1,1.2-1.079,3.747,3.747,0,0,1,3.432,0,3.672,3.672,0,0,1,1.2,1.079,4.593,4.593,0,0,1,.689,1.521,6.823,6.823,0,0,1,0,3.445,4.765,4.765,0,0,1-.689,1.521,3.612,3.612,0,0,1-1.2,1.092A3.747,3.747,0,0,1,411.389,303.257Zm19.877,2.223a6.122,6.122,0,0,0,2.132-1.469,6.27,6.27,0,0,0,1.326-2.236,9.134,9.134,0,0,0,0-5.694,6.27,6.27,0,0,0-1.326-2.236,6.122,6.122,0,0,0-2.132-1.469,8.01,8.01,0,0,0-5.746,0,6.122,6.122,0,0,0-2.132,1.469,6.27,6.27,0,0,0-1.326,2.236,9.134,9.134,0,0,0,0,5.694,6.27,6.27,0,0,0,1.326,2.236,6.122,6.122,0,0,0,2.132,1.469A8.01,8.01,0,0,0,431.266,305.48Zm-4.589-2.223a3.612,3.612,0,0,1-1.2-1.092,4.765,4.765,0,0,1-.689-1.521,6.823,6.823,0,0,1,0-3.445,4.593,4.593,0,0,1,.689-1.521,3.672,3.672,0,0,1,1.2-1.079,3.747,3.747,0,0,1,3.432,0,3.672,3.672,0,0,1,1.2,1.079,4.593,4.593,0,0,1,.689,1.521,6.823,6.823,0,0,1,0,3.445,4.765,4.765,0,0,1-.689,1.521,3.612,3.612,0,0,1-1.2,1.092A3.747,3.747,0,0,1,426.677,303.257Zm10.92,2.392h2.964v-4.81l1.768-1.716,4.108,6.526h3.614l-5.642-8.5,5.148-4.94h-3.64l-5.356,5.434V287.085H437.6v18.564Z" transform="translate(-104 -270)"/>
  <path id="icon" class="cls-2" d="M146.231,282H117.768A1.769,1.769,0,0,0,116,283.769v28.462A1.769,1.769,0,0,0,117.768,314H133.1V301.649h-4.183v-4.867h4.16v-3.554c0-4.137,2.521-6.388,6.209-6.388a34.544,34.544,0,0,1,3.75.213v4.317h-2.549c-2,0-2.391.949-2.391,2.347V296.8h4.8l-0.623,4.845h-4.177V314h8.14A1.769,1.769,0,0,0,148,312.231h0V283.769A1.769,1.769,0,0,0,146.231,282h0Z" transform="translate(-104 -270)"/>
</svg>
