<svg id="continue-sm.svg" xmlns="http://www.w3.org/2000/svg" xmlns:xlink="http://www.w3.org/1999/xlink" width="307" height="40" viewBox="0 0 307 40">
  <defs>
    <style>
      .cls-1 {
        fill: #20123a;
        filter: url(#filter);
      }

      .cls-2 {
        fill: #fff;
        fill-rule: evenodd;
      }
    </style>
    <filter id="filter" x="0" y="0" width="307" height="40" filterUnits="userSpaceOnUse">
      <feFlood result="flood" flood-color="#4267b2"/>
      <feComposite result="composite" operator="in" in2="SourceGraphic"/>
      <feBlend result="blend" in2="SourceGraphic"/>
    </filter>
  </defs>
  <rect id="Rounded_Rectangle_1_copy_2" data-name="Rounded Rectangle 1 copy 2" class="cls-1" width="307" height="40" rx="6" ry="6"/>
  <path id="Continue_with_Facebook" data-name="Continue with Facebook" class="cls-2" d="M194.336,418.935a5.848,5.848,0,0,0-.682-2.266,5.489,5.489,0,0,0-1.441-1.683,6.431,6.431,0,0,0-2.057-1.056,8.317,8.317,0,0,0-2.486-.363,7.3,7.3,0,0,0-3.157.66,7.069,7.069,0,0,0-2.365,1.782,7.928,7.928,0,0,0-1.485,2.618,10.032,10.032,0,0,0,0,6.358,7.938,7.938,0,0,0,1.485,2.618,6.949,6.949,0,0,0,2.365,1.771,7.418,7.418,0,0,0,3.157.649,7.167,7.167,0,0,0,2.618-.462,6.186,6.186,0,0,0,2.068-1.309,6.319,6.319,0,0,0,1.4-2.013,7.452,7.452,0,0,0,.605-2.574h-2.684a6.271,6.271,0,0,1-.374,1.606,4.161,4.161,0,0,1-.792,1.309,3.629,3.629,0,0,1-1.21.88,3.918,3.918,0,0,1-1.628.319,4.407,4.407,0,0,1-2.167-.506,4.256,4.256,0,0,1-1.485-1.353,6.114,6.114,0,0,1-.847-1.925,8.938,8.938,0,0,1,0-4.4,6.094,6.094,0,0,1,.847-1.925,4.237,4.237,0,0,1,1.485-1.353,4.4,4.4,0,0,1,2.167-.506,4.49,4.49,0,0,1,1.507.231,3.513,3.513,0,0,1,1.133.649,3.44,3.44,0,0,1,.792.99,5.556,5.556,0,0,1,.484,1.254h2.75Zm9.779,10.571a5.2,5.2,0,0,0,1.8-1.243,5.329,5.329,0,0,0,1.122-1.892,7.3,7.3,0,0,0,.385-2.42,7.226,7.226,0,0,0-.385-2.4,5.32,5.32,0,0,0-1.122-1.892,5.185,5.185,0,0,0-1.8-1.243,6.777,6.777,0,0,0-4.862,0,5.166,5.166,0,0,0-1.8,1.243,5.291,5.291,0,0,0-1.122,1.892,7.2,7.2,0,0,0-.385,2.4,7.277,7.277,0,0,0,.385,2.42,5.3,5.3,0,0,0,1.122,1.892,5.179,5.179,0,0,0,1.8,1.243A6.777,6.777,0,0,0,204.115,429.506Zm-3.883-1.881a3.064,3.064,0,0,1-1.012-.924,4.031,4.031,0,0,1-.583-1.287,5.773,5.773,0,0,1,0-2.915,3.879,3.879,0,0,1,.583-1.287,3.1,3.1,0,0,1,1.012-.913,3.171,3.171,0,0,1,2.9,0,3.107,3.107,0,0,1,1.012.913,3.9,3.9,0,0,1,.583,1.287,5.773,5.773,0,0,1,0,2.915,4.053,4.053,0,0,1-.583,1.287,3.073,3.073,0,0,1-1.012.924A3.171,3.171,0,0,1,200.232,427.625Zm9.24,2.024h2.508v-6.71a3.412,3.412,0,0,1,.2-1.166,2.986,2.986,0,0,1,.55-0.957,2.46,2.46,0,0,1,.858-0.638,2.722,2.722,0,0,1,1.144-.231,2.075,2.075,0,0,1,1.65.605,3.093,3.093,0,0,1,.572,1.947v7.15h2.508v-7.81a3.706,3.706,0,0,0-1.078-2.9,4.25,4.25,0,0,0-2.948-.968,3.98,3.98,0,0,0-2.046.539,4.2,4.2,0,0,0-1.5,1.485l-0.044-.044v-1.672h-2.376v11.374Zm11.439-9.5H222.8v6.71a6.967,6.967,0,0,0,.143,1.254,1.907,1.907,0,0,0,.462.913,2.138,2.138,0,0,0,.946.55,5.579,5.579,0,0,0,1.595.187,7.446,7.446,0,0,0,.814-0.044c0.264-.03.536-0.059,0.814-0.088v-1.936a2.671,2.671,0,0,1-.528.077c-0.176.007-.352,0.011-0.528,0.011a1.791,1.791,0,0,1-.66-0.1,0.739,0.739,0,0,1-.363-0.3,1.19,1.19,0,0,1-.154-0.484,6.061,6.061,0,0,1-.033-0.682v-6.072h2.266v-1.87h-2.266v-3.41H222.8v3.41h-1.892v1.87Zm8.492-3.828h2.508v-2.376H229.4v2.376Zm0,13.332h2.508V418.275H229.4v11.374Zm5.192,0H237.1v-6.71a3.412,3.412,0,0,1,.2-1.166,2.986,2.986,0,0,1,.55-0.957,2.479,2.479,0,0,1,.858-0.638,2.725,2.725,0,0,1,1.144-.231,2.075,2.075,0,0,1,1.65.605,3.087,3.087,0,0,1,.572,1.947v7.15h2.508v-7.81a3.7,3.7,0,0,0-1.078-2.9,4.248,4.248,0,0,0-2.948-.968,3.98,3.98,0,0,0-2.046.539,4.2,4.2,0,0,0-1.5,1.485l-0.044-.044v-1.672H234.6v11.374Zm22.572-11.374h-2.508v6.6a5.089,5.089,0,0,1-.143,1.232,2.5,2.5,0,0,1-.473.979,2.346,2.346,0,0,1-.858.649,3.174,3.174,0,0,1-1.32.242,2.084,2.084,0,0,1-1.606-.616,3.083,3.083,0,0,1-.572-2.112v-6.974h-2.508v7.216a4.876,4.876,0,0,0,1,3.355,4.178,4.178,0,0,0,3.245,1.111,3.743,3.743,0,0,0,1.859-.517,3.451,3.451,0,0,0,1.375-1.375H254.7v1.584h2.464V418.275Zm4.554,4.686a3.318,3.318,0,0,1,.253-1.188,3.141,3.141,0,0,1,.616-0.957,2.72,2.72,0,0,1,.924-0.638,3.013,3.013,0,0,1,1.2-.231,2.59,2.59,0,0,1,1.155.253,2.82,2.82,0,0,1,.88.66,3.053,3.053,0,0,1,.572.957,4.074,4.074,0,0,1,.253,1.144h-5.852Zm8.36,1.65a6.534,6.534,0,0,0-.165-2.475,6.019,6.019,0,0,0-1.023-2.123,5.3,5.3,0,0,0-1.771-1.485,5.1,5.1,0,0,0-2.409-.561,5.16,5.16,0,0,0-4.015,1.793,5.867,5.867,0,0,0-1.1,1.914,6.836,6.836,0,0,0-.385,2.3,7.689,7.689,0,0,0,.363,2.42,5.226,5.226,0,0,0,1.078,1.892,4.908,4.908,0,0,0,1.749,1.232,6.026,6.026,0,0,0,2.376.44,6.18,6.18,0,0,0,1.771-.253,5.052,5.052,0,0,0,1.529-.748,4.716,4.716,0,0,0,1.848-2.871h-2.376a2.8,2.8,0,0,1-1,1.419,3.017,3.017,0,0,1-1.771.473,3.125,3.125,0,0,1-1.364-.275,2.7,2.7,0,0,1-.946-0.737,3.127,3.127,0,0,1-.561-1.078,4.359,4.359,0,0,1-.187-1.276h8.36Zm10.428,5.038h2.64l2.09-8.448h0.044l2.112,8.448h2.574l3.564-11.374h-2.552l-2.31,8.492h-0.044l-2.046-8.492h-2.53l-2.134,8.492h-0.044l-2.222-8.492h-2.662Zm14.652-13.332h2.508v-2.376h-2.508v2.376Zm0,13.332h2.508V418.275h-2.508v11.374Zm4.048-9.5H301.1v6.71a6.79,6.79,0,0,0,.143,1.254,1.889,1.889,0,0,0,.462.913,2.127,2.127,0,0,0,.946.55,5.574,5.574,0,0,0,1.6.187,7.46,7.46,0,0,0,.814-0.044q0.4-.045.814-0.088v-1.936a2.671,2.671,0,0,1-.528.077c-0.176.007-.352,0.011-0.528,0.011a1.784,1.784,0,0,1-.66-0.1,0.73,0.73,0,0,1-.363-0.3,1.175,1.175,0,0,1-.154-0.484,6.061,6.061,0,0,1-.033-0.682v-6.072h2.266v-1.87h-2.266v-3.41H301.1v3.41h-1.892v1.87Zm8.425,9.5h2.508v-6.71a3.412,3.412,0,0,1,.2-1.166,3,3,0,0,1,.55-0.957,2.479,2.479,0,0,1,.858-0.638,2.728,2.728,0,0,1,1.144-.231,2.075,2.075,0,0,1,1.65.605,3.087,3.087,0,0,1,.572,1.947v7.15h2.508v-7.81a3.7,3.7,0,0,0-1.078-2.9,4.246,4.246,0,0,0-2.948-.968,4.055,4.055,0,0,0-2.035.517,3.648,3.648,0,0,0-1.375,1.287h-0.044v-5.83h-2.508v15.708Zm19.008,0h2.75v-6.974H336.5v-2.244h-7.106v-4.114h8.1v-2.376H326.642v15.708Zm22.176-8.382a2.805,2.805,0,0,0-.4-1.529,3.175,3.175,0,0,0-1.045-1.023,4.688,4.688,0,0,0-1.463-.572,7.747,7.747,0,0,0-1.65-.176,9.57,9.57,0,0,0-1.848.176,4.784,4.784,0,0,0-1.617.616,3.641,3.641,0,0,0-1.177,1.166,3.773,3.773,0,0,0-.528,1.826H341.6a1.713,1.713,0,0,1,.77-1.364,3.143,3.143,0,0,1,1.738-.44,6.032,6.032,0,0,1,.792.055,2.463,2.463,0,0,1,.759.22,1.546,1.546,0,0,1,.572.473,1.283,1.283,0,0,1,.231.792,1.124,1.124,0,0,1-.275.825,1.676,1.676,0,0,1-.748.407,6.142,6.142,0,0,1-1.089.187,12.643,12.643,0,0,0-1.3.187q-0.792.087-1.573,0.253a4.551,4.551,0,0,0-1.408.539,2.844,2.844,0,0,0-1.012,1.034,3.375,3.375,0,0,0-.385,1.716A3.182,3.182,0,0,0,339,428.1a2.944,2.944,0,0,0,.858,1.034,3.878,3.878,0,0,0,1.243.616,5.159,5.159,0,0,0,1.474.209,7.237,7.237,0,0,0,2.1-.33,4.438,4.438,0,0,0,1.837-1.056,1.532,1.532,0,0,0,.66,1.078,2.419,2.419,0,0,0,1.276.308c0.1,0,.227-0.008.374-0.022s0.293-.037.44-0.066,0.289-.063.429-0.1,0.253-.07.341-0.1v-1.738a1.671,1.671,0,0,1-.352.044h-0.264a0.509,0.509,0,0,1-.473-0.2,1.327,1.327,0,0,1-.121-0.66v-5.852Zm-2.508,4.554a1.7,1.7,0,0,1-.286,1,2.412,2.412,0,0,1-.715.671,3.024,3.024,0,0,1-.913.374,4.112,4.112,0,0,1-.9.11,4.64,4.64,0,0,1-.737-0.066,2.689,2.689,0,0,1-.748-0.231,1.756,1.756,0,0,1-.583-0.451,1.051,1.051,0,0,1-.242-0.7,1.879,1.879,0,0,1,.165-0.825,1.438,1.438,0,0,1,.451-0.55,2.268,2.268,0,0,1,.66-0.33,5.306,5.306,0,0,1,.77-0.187q0.835-.155,1.672-0.231a3.06,3.06,0,0,0,1.408-.451v1.87Zm15.356-3.74a4.377,4.377,0,0,0-.528-1.826,4.037,4.037,0,0,0-1.133-1.276,4.927,4.927,0,0,0-1.584-.759,6.842,6.842,0,0,0-1.881-.253,5.889,5.889,0,0,0-2.453.473,4.931,4.931,0,0,0-1.749,1.3,5.472,5.472,0,0,0-1.056,1.947,7.956,7.956,0,0,0-.352,2.4,7.265,7.265,0,0,0,.363,2.332,5.231,5.231,0,0,0,1.067,1.859,5.023,5.023,0,0,0,1.727,1.232,5.825,5.825,0,0,0,2.365.451,5.141,5.141,0,0,0,3.531-1.177,5.514,5.514,0,0,0,1.683-3.4h-2.508a3.179,3.179,0,0,1-.891,1.914,2.527,2.527,0,0,1-1.815.682,2.662,2.662,0,0,1-1.386-.341,2.867,2.867,0,0,1-.935-0.891,3.855,3.855,0,0,1-.528-1.254,6.158,6.158,0,0,1-.165-1.408,5.951,5.951,0,0,1,.308-2.1,3.437,3.437,0,0,1,.77-1.254,2.448,2.448,0,0,1,1.012-.616,3.6,3.6,0,0,1,1.034-.165,2.76,2.76,0,0,1,1.749.539,2.353,2.353,0,0,1,.847,1.6h2.508Zm3.96,0.88a3.318,3.318,0,0,1,.253-1.188,3.141,3.141,0,0,1,.616-0.957,2.72,2.72,0,0,1,.924-0.638,3.013,3.013,0,0,1,1.2-.231,2.59,2.59,0,0,1,1.155.253,2.82,2.82,0,0,1,.88.66,3.053,3.053,0,0,1,.572.957,4.074,4.074,0,0,1,.253,1.144h-5.852Zm8.36,1.65a6.534,6.534,0,0,0-.165-2.475,6.019,6.019,0,0,0-1.023-2.123,5.3,5.3,0,0,0-1.771-1.485,5.1,5.1,0,0,0-2.409-.561,5.16,5.16,0,0,0-4.015,1.793,5.867,5.867,0,0,0-1.1,1.914,6.836,6.836,0,0,0-.385,2.3,7.689,7.689,0,0,0,.363,2.42,5.226,5.226,0,0,0,1.078,1.892,4.908,4.908,0,0,0,1.749,1.232,6.026,6.026,0,0,0,2.376.44,6.18,6.18,0,0,0,1.771-.253,5.052,5.052,0,0,0,1.529-.748,4.716,4.716,0,0,0,1.848-2.871h-2.376a2.8,2.8,0,0,1-1,1.419,3.017,3.017,0,0,1-1.771.473,3.125,3.125,0,0,1-1.364-.275,2.7,2.7,0,0,1-.946-0.737,3.127,3.127,0,0,1-.561-1.078,4.359,4.359,0,0,1-.187-1.276h8.36Zm1.936,5.038H378.3v-1.562h0.044a2.78,2.78,0,0,0,.715.924,3.838,3.838,0,0,0,.957.572,4.411,4.411,0,0,0,1.111.3,8.856,8.856,0,0,0,1.155.077,4.4,4.4,0,0,0,3.707-1.815,5.793,5.793,0,0,0,.9-1.9,8.333,8.333,0,0,0,.3-2.222,8.152,8.152,0,0,0-.33-2.354,5.632,5.632,0,0,0-.99-1.925,4.619,4.619,0,0,0-1.661-1.3,5.426,5.426,0,0,0-2.343-.473,4.093,4.093,0,0,0-.979.121,4.27,4.27,0,0,0-.946.352,3.974,3.974,0,0,0-.825.561,3.424,3.424,0,0,0-.638.748H378.43v-5.808h-2.508v15.708Zm8.591-4.213a3.72,3.72,0,0,1-.55,1.276,3.077,3.077,0,0,1-.979.913,2.809,2.809,0,0,1-1.452.352,2.855,2.855,0,0,1-1.353-.308,3.129,3.129,0,0,1-1-.836,3.581,3.581,0,0,1-.627-1.265,5.8,5.8,0,0,1-.209-1.595,4.848,4.848,0,0,1,.8-2.926,2.763,2.763,0,0,1,2.387-1.1,2.685,2.685,0,0,1,1.364.341,3.063,3.063,0,0,1,.99.9,4.065,4.065,0,0,1,.594,1.287,5.656,5.656,0,0,1,.2,1.5A6.492,6.492,0,0,1,384.513,425.436Zm12.386,4.07a5.2,5.2,0,0,0,1.8-1.243,5.329,5.329,0,0,0,1.122-1.892,7.3,7.3,0,0,0,.385-2.42,7.226,7.226,0,0,0-.385-2.4,5.32,5.32,0,0,0-1.122-1.892,5.185,5.185,0,0,0-1.8-1.243,6.777,6.777,0,0,0-4.862,0,5.166,5.166,0,0,0-1.8,1.243,5.291,5.291,0,0,0-1.122,1.892,7.2,7.2,0,0,0-.385,2.4,7.277,7.277,0,0,0,.385,2.42,5.3,5.3,0,0,0,1.122,1.892,5.179,5.179,0,0,0,1.8,1.243A6.777,6.777,0,0,0,396.9,429.506Zm-3.883-1.881A3.064,3.064,0,0,1,392,426.7a4.031,4.031,0,0,1-.583-1.287,5.773,5.773,0,0,1,0-2.915,3.879,3.879,0,0,1,.583-1.287,3.1,3.1,0,0,1,1.012-.913,3.171,3.171,0,0,1,2.9,0,3.107,3.107,0,0,1,1.012.913,3.9,3.9,0,0,1,.583,1.287,5.773,5.773,0,0,1,0,2.915,4.053,4.053,0,0,1-.583,1.287,3.073,3.073,0,0,1-1.012.924A3.171,3.171,0,0,1,393.016,427.625Zm16.885,1.881a5.2,5.2,0,0,0,1.8-1.243,5.329,5.329,0,0,0,1.122-1.892,7.3,7.3,0,0,0,.385-2.42,7.226,7.226,0,0,0-.385-2.4,5.32,5.32,0,0,0-1.122-1.892,5.185,5.185,0,0,0-1.8-1.243,6.777,6.777,0,0,0-4.862,0,5.166,5.166,0,0,0-1.8,1.243,5.291,5.291,0,0,0-1.122,1.892,7.2,7.2,0,0,0-.385,2.4,7.277,7.277,0,0,0,.385,2.42,5.3,5.3,0,0,0,1.122,1.892,5.179,5.179,0,0,0,1.8,1.243A6.777,6.777,0,0,0,409.9,429.506Zm-3.883-1.881a3.064,3.064,0,0,1-1.012-.924,4.031,4.031,0,0,1-.583-1.287,5.773,5.773,0,0,1,0-2.915,3.879,3.879,0,0,1,.583-1.287,3.1,3.1,0,0,1,1.012-.913,3.171,3.171,0,0,1,2.9,0,3.107,3.107,0,0,1,1.012.913,3.9,3.9,0,0,1,.583,1.287,5.773,5.773,0,0,1,0,2.915,4.053,4.053,0,0,1-.583,1.287,3.073,3.073,0,0,1-1.012.924A3.171,3.171,0,0,1,406.018,427.625Zm9.305,2.024h2.508v-4.07l1.5-1.452,3.476,5.522h3.058l-4.774-7.194,4.356-4.18h-3.08l-4.532,4.6v-8.932h-2.508v15.708Z" transform="translate(-135 -404)"/>
  <path id="icon" class="cls-2" d="M165.673,412H144.326A1.327,1.327,0,0,0,143,413.327v21.347A1.326,1.326,0,0,0,144.326,436h11.5v-9.263h-3.137v-3.651h3.12v-2.665c0-3.1,1.891-4.791,4.657-4.791a25.9,25.9,0,0,1,2.812.16v3.237h-1.911c-1.5,0-1.794.712-1.794,1.76V423.1h3.6l-0.467,3.634h-3.133V436h6.1A1.327,1.327,0,0,0,167,434.674h0V413.327A1.327,1.327,0,0,0,165.673,412h0Z" transform="translate(-135 -404)"/>
</svg>
