<svg id="login-lg.svg" xmlns="http://www.w3.org/2000/svg" xmlns:xlink="http://www.w3.org/1999/xlink" width="472" height="80" viewBox="0 0 472 80">
  <defs>
    <style>
      .cls-1 {
        fill: #20123a;
        filter: url(#filter);
      }

      .cls-2 {
        fill: #fff;
        fill-rule: evenodd;
      }
    </style>
    <filter id="filter" x="0" y="0" width="472" height="80" filterUnits="userSpaceOnUse">
      <feFlood result="flood" flood-color="#4267b3"/>
      <feComposite result="composite" operator="in" in2="SourceGraphic"/>
      <feBlend result="blend" in2="SourceGraphic"/>
    </filter>
  </defs>
  <rect id="Rounded_Rectangle_1_copy_3" data-name="Rounded Rectangle 1 copy 3" class="cls-1" width="472" height="80" rx="8" ry="8"/>
  <path id="Log_in_With_Facebook" data-name="Log in With Facebook" class="cls-2" d="M183.818,628.649h16.1v-3.564H187.943v-20h-4.125v23.562Zm29.221-.215a7.762,7.762,0,0,0,2.706-1.864,7.975,7.975,0,0,0,1.683-2.838,11.584,11.584,0,0,0,0-7.227,7.975,7.975,0,0,0-1.683-2.838,7.777,7.777,0,0,0-2.706-1.865,10.173,10.173,0,0,0-7.293,0,7.777,7.777,0,0,0-2.706,1.865,7.975,7.975,0,0,0-1.683,2.838,11.6,11.6,0,0,0,0,7.227,7.975,7.975,0,0,0,1.683,2.838,7.762,7.762,0,0,0,2.706,1.864A10.159,10.159,0,0,0,213.039,628.434Zm-5.824-2.821a4.59,4.59,0,0,1-1.518-1.386,6.053,6.053,0,0,1-.875-1.931,8.673,8.673,0,0,1,0-4.372,5.842,5.842,0,0,1,.875-1.931,4.66,4.66,0,0,1,1.518-1.369,4.756,4.756,0,0,1,4.356,0,4.66,4.66,0,0,1,1.518,1.369,5.84,5.84,0,0,1,.874,1.931,8.643,8.643,0,0,1,0,4.372,6.051,6.051,0,0,1-.874,1.931,4.59,4.59,0,0,1-1.518,1.386A4.756,4.756,0,0,1,207.215,625.613Zm29.039-14.025h-3.762v2.343h-0.066a4.593,4.593,0,0,0-2.079-2.129,6.56,6.56,0,0,0-2.97-.676,7.381,7.381,0,0,0-3.25.693,7.284,7.284,0,0,0-2.426,1.864,8.331,8.331,0,0,0-1.518,2.723,10.068,10.068,0,0,0-.528,3.267,13.47,13.47,0,0,0,.429,3.465,8.089,8.089,0,0,0,1.37,2.854,6.623,6.623,0,0,0,2.376,1.947,7.78,7.78,0,0,0,3.481.71,5.8,5.8,0,0,0,2.954-.792,5.72,5.72,0,0,0,2.161-2.211h0.066v2.607a4.548,4.548,0,0,1-1.056,3.234,4.391,4.391,0,0,1-3.333,1.122,11.175,11.175,0,0,1-1.386-.083,3.573,3.573,0,0,1-1.2-.363,2.89,2.89,0,0,1-.941-0.775,3.012,3.012,0,0,1-.561-1.287h-3.762a5.019,5.019,0,0,0,.858,2.508,5.753,5.753,0,0,0,1.8,1.65,7.749,7.749,0,0,0,2.376.891,13.092,13.092,0,0,0,2.59.264,9.147,9.147,0,0,0,6.221-1.9q2.162-1.9,2.161-5.758v-16.17Zm-10.378,13.6a4.314,4.314,0,0,1-1.386-1.287,5.689,5.689,0,0,1-.809-1.8,8.092,8.092,0,0,1-.264-2.062,10.09,10.09,0,0,1,.231-2.129,5.918,5.918,0,0,1,.759-1.914,4.228,4.228,0,0,1,1.386-1.369,3.959,3.959,0,0,1,2.112-.528,4.434,4.434,0,0,1,2.1.462,3.907,3.907,0,0,1,1.419,1.254,5.676,5.676,0,0,1,.808,1.815,8.418,8.418,0,0,1,.264,2.112,9.571,9.571,0,0,1-.247,2.161,5.956,5.956,0,0,1-.792,1.914,3.995,3.995,0,0,1-3.548,1.865A3.934,3.934,0,0,1,225.876,625.184ZM248,608.651h3.762v-3.564H248v3.564Zm0,20h3.762V611.588H248v17.061Zm7.194,0h3.762V618.584a5.124,5.124,0,0,1,.3-1.749,4.512,4.512,0,0,1,.825-1.436,3.721,3.721,0,0,1,1.287-.957,4.087,4.087,0,0,1,1.716-.346,3.116,3.116,0,0,1,2.475.907,4.639,4.639,0,0,1,.858,2.921v10.725h3.762V616.934a5.557,5.557,0,0,0-1.617-4.356,6.377,6.377,0,0,0-4.422-1.452,5.979,5.979,0,0,0-3.069.808,6.317,6.317,0,0,0-2.244,2.228l-0.066-.066v-2.508H255.2v17.061Zm31.218,0h4.257l4.818-18.018h0.066l4.719,18.018h4.191l6.5-23.562h-4.191l-4.389,18.018H302.32l-4.62-18.018h-4.224l-4.752,18.018h-0.066L284.4,605.087H280.21Zm26.168-20h3.762v-3.564h-3.762v3.564Zm0,20h3.762V611.588h-3.762v17.061Zm5.478-14.256H320.9v10.065a10.216,10.216,0,0,0,.215,1.881,2.828,2.828,0,0,0,.693,1.369,3.173,3.173,0,0,0,1.419.825,8.317,8.317,0,0,0,2.392.281,11.3,11.3,0,0,0,1.221-.066q0.594-.068,1.221-0.132v-2.9a3.932,3.932,0,0,1-.792.115c-0.264.012-.528,0.017-0.792,0.017a2.678,2.678,0,0,1-.99-0.149,1.1,1.1,0,0,1-.544-0.445,1.751,1.751,0,0,1-.231-0.726,9.073,9.073,0,0,1-.05-1.023v-9.108h3.4v-2.805h-3.4v-5.115H320.9v5.115H318.06v2.805Zm12.045,14.256h3.762V618.584a5.124,5.124,0,0,1,.3-1.749,4.512,4.512,0,0,1,.825-1.436,3.7,3.7,0,0,1,1.287-.957,4.084,4.084,0,0,1,1.716-.346,3.116,3.116,0,0,1,2.475.907,4.645,4.645,0,0,1,.858,2.921v10.725h3.762V616.934a5.561,5.561,0,0,0-1.617-4.356,6.379,6.379,0,0,0-4.422-1.452A6.1,6.1,0,0,0,336,611.9a5.48,5.48,0,0,0-2.062,1.931h-0.066v-8.745h-3.762v23.562Zm27.323,0h4.125V618.188h10.659v-3.366H361.553v-6.171H373.7v-3.564H357.428v23.562Zm32.67-12.573a4.212,4.212,0,0,0-.594-2.294,4.759,4.759,0,0,0-1.567-1.534,7.043,7.043,0,0,0-2.195-.858,11.678,11.678,0,0,0-2.475-.264,14.441,14.441,0,0,0-2.772.264,7.212,7.212,0,0,0-2.425.924,5.463,5.463,0,0,0-1.766,1.749,5.663,5.663,0,0,0-.792,2.739h3.762a2.574,2.574,0,0,1,1.155-2.046,4.726,4.726,0,0,1,2.607-.66,9.3,9.3,0,0,1,1.188.082,3.718,3.718,0,0,1,1.139.33,2.335,2.335,0,0,1,.858.71,1.927,1.927,0,0,1,.346,1.188,1.684,1.684,0,0,1-.412,1.237,2.5,2.5,0,0,1-1.122.611,9.072,9.072,0,0,1-1.634.28,19.311,19.311,0,0,0-1.947.281q-1.188.132-2.359,0.379a6.847,6.847,0,0,0-2.112.809,4.271,4.271,0,0,0-1.518,1.551,5.058,5.058,0,0,0-.578,2.574,4.763,4.763,0,0,0,.479,2.194,4.407,4.407,0,0,0,1.287,1.551,5.769,5.769,0,0,0,1.864.924,7.728,7.728,0,0,0,2.211.314,10.854,10.854,0,0,0,3.152-.5,6.651,6.651,0,0,0,2.755-1.584,2.3,2.3,0,0,0,.99,1.617,3.636,3.636,0,0,0,1.914.462c0.154,0,.341-0.012.561-0.033s0.44-.056.66-0.1,0.434-.094.644-0.149,0.379-.105.511-0.148v-2.607a2.466,2.466,0,0,1-.528.066h-0.4a0.763,0.763,0,0,1-.709-0.3,1.984,1.984,0,0,1-.182-0.99v-8.778Zm-3.762,6.831a2.545,2.545,0,0,1-.429,1.5,3.593,3.593,0,0,1-1.072,1.007,4.5,4.5,0,0,1-1.37.561,6.127,6.127,0,0,1-1.353.165,6.949,6.949,0,0,1-1.105-.1,4.029,4.029,0,0,1-1.122-.347,2.627,2.627,0,0,1-.875-0.676,1.579,1.579,0,0,1-.363-1.056,2.826,2.826,0,0,1,.248-1.238,2.179,2.179,0,0,1,.676-0.825,3.479,3.479,0,0,1,.99-0.5,8.175,8.175,0,0,1,1.155-.28q1.254-.231,2.508-0.347a4.567,4.567,0,0,0,2.112-.676v2.805Zm22.44-5.61a6.554,6.554,0,0,0-.792-2.739,6.058,6.058,0,0,0-1.7-1.914,7.432,7.432,0,0,0-2.376-1.139,10.324,10.324,0,0,0-2.822-.379,8.849,8.849,0,0,0-3.679.709,7.417,7.417,0,0,0-2.624,1.947A8.241,8.241,0,0,0,393.2,616.7a11.951,11.951,0,0,0-.528,3.6,10.9,10.9,0,0,0,.545,3.5,7.836,7.836,0,0,0,1.6,2.788,7.508,7.508,0,0,0,2.591,1.848,8.72,8.72,0,0,0,3.547.677,7.706,7.706,0,0,0,5.3-1.766,8.264,8.264,0,0,0,2.524-5.1h-3.762a4.76,4.76,0,0,1-1.336,2.871,3.788,3.788,0,0,1-2.723,1.023,3.981,3.981,0,0,1-2.079-.512,4.286,4.286,0,0,1-1.4-1.336,5.774,5.774,0,0,1-.792-1.881,9.229,9.229,0,0,1-.248-2.112,8.962,8.962,0,0,1,.462-3.152,5.18,5.18,0,0,1,1.155-1.881,3.691,3.691,0,0,1,1.518-.924,5.408,5.408,0,0,1,1.551-.247,4.147,4.147,0,0,1,2.624.808,3.532,3.532,0,0,1,1.27,2.393h3.762Zm5.346,1.32a5.008,5.008,0,0,1,.38-1.782,4.729,4.729,0,0,1,.924-1.436,4.093,4.093,0,0,1,1.386-.957,4.515,4.515,0,0,1,1.8-.346,3.907,3.907,0,0,1,1.733.379,4.26,4.26,0,0,1,1.32.99,4.6,4.6,0,0,1,.858,1.436,6.1,6.1,0,0,1,.379,1.716h-8.778Zm12.54,2.475a9.785,9.785,0,0,0-.247-3.713,9.035,9.035,0,0,0-1.535-3.184,7.939,7.939,0,0,0-2.656-2.228,7.65,7.65,0,0,0-3.614-.841,7.74,7.74,0,0,0-6.022,2.689,8.792,8.792,0,0,0-1.65,2.871,10.248,10.248,0,0,0-.578,3.449,11.529,11.529,0,0,0,.545,3.63,7.827,7.827,0,0,0,1.617,2.838,7.357,7.357,0,0,0,2.623,1.848,9.051,9.051,0,0,0,3.564.66,9.241,9.241,0,0,0,2.657-.38,7.535,7.535,0,0,0,2.293-1.122,7.071,7.071,0,0,0,2.772-4.306h-3.564a4.2,4.2,0,0,1-1.5,2.128,4.515,4.515,0,0,1-2.657.71,4.668,4.668,0,0,1-2.046-.413,4.055,4.055,0,0,1-1.419-1.1,4.7,4.7,0,0,1-.841-1.617,6.52,6.52,0,0,1-.281-1.914h12.54Zm2.31,7.557h3.564v-2.343H432.6a4.172,4.172,0,0,0,1.072,1.386,5.715,5.715,0,0,0,1.436.858,6.576,6.576,0,0,0,1.666.445,13.229,13.229,0,0,0,1.733.116,6.6,6.6,0,0,0,5.561-2.723,8.687,8.687,0,0,0,1.353-2.854,12.49,12.49,0,0,0,.445-3.333,12.23,12.23,0,0,0-.5-3.531,8.46,8.46,0,0,0-1.485-2.888,6.947,6.947,0,0,0-2.491-1.947,8.153,8.153,0,0,0-3.515-.709,6.214,6.214,0,0,0-1.468.181,6.436,6.436,0,0,0-1.419.528,5.967,5.967,0,0,0-1.238.842,5.175,5.175,0,0,0-.957,1.122h-0.066v-8.712h-3.762v23.562Zm12.887-6.32a5.572,5.572,0,0,1-.825,1.914,4.619,4.619,0,0,1-1.469,1.37,4.2,4.2,0,0,1-2.178.528,4.277,4.277,0,0,1-2.029-.462,4.688,4.688,0,0,1-1.5-1.254,5.361,5.361,0,0,1-.94-1.9,8.7,8.7,0,0,1-.314-2.392,7.281,7.281,0,0,1,1.2-4.389,4.149,4.149,0,0,1,3.581-1.65,4.035,4.035,0,0,1,2.046.511,4.612,4.612,0,0,1,1.485,1.353,6.1,6.1,0,0,1,.891,1.931,8.49,8.49,0,0,1,.3,2.244A9.774,9.774,0,0,1,441.859,622.329Zm17.984,6.105a7.762,7.762,0,0,0,2.706-1.864,7.975,7.975,0,0,0,1.683-2.838,11.584,11.584,0,0,0,0-7.227,7.975,7.975,0,0,0-1.683-2.838,7.777,7.777,0,0,0-2.706-1.865,10.173,10.173,0,0,0-7.293,0,7.777,7.777,0,0,0-2.706,1.865,7.975,7.975,0,0,0-1.683,2.838,11.6,11.6,0,0,0,0,7.227,7.975,7.975,0,0,0,1.683,2.838,7.762,7.762,0,0,0,2.706,1.864A10.159,10.159,0,0,0,459.843,628.434Zm-5.824-2.821a4.59,4.59,0,0,1-1.518-1.386,6.053,6.053,0,0,1-.875-1.931,8.673,8.673,0,0,1,0-4.372,5.842,5.842,0,0,1,.875-1.931,4.66,4.66,0,0,1,1.518-1.369,4.756,4.756,0,0,1,4.356,0,4.67,4.67,0,0,1,1.518,1.369,5.84,5.84,0,0,1,.874,1.931,8.643,8.643,0,0,1,0,4.372,6.051,6.051,0,0,1-.874,1.931,4.6,4.6,0,0,1-1.518,1.386A4.756,4.756,0,0,1,454.019,625.613Zm24.733,2.821a7.771,7.771,0,0,0,2.706-1.864,7.975,7.975,0,0,0,1.683-2.838,11.6,11.6,0,0,0,0-7.227,7.975,7.975,0,0,0-1.683-2.838,7.787,7.787,0,0,0-2.706-1.865,10.173,10.173,0,0,0-7.293,0,7.768,7.768,0,0,0-2.706,1.865,7.945,7.945,0,0,0-1.683,2.838,11.584,11.584,0,0,0,0,7.227,7.945,7.945,0,0,0,1.683,2.838,7.753,7.753,0,0,0,2.706,1.864A10.159,10.159,0,0,0,478.752,628.434Zm-5.825-2.821a4.59,4.59,0,0,1-1.518-1.386,6.029,6.029,0,0,1-.874-1.931,8.643,8.643,0,0,1,0-4.372,5.82,5.82,0,0,1,.874-1.931,4.66,4.66,0,0,1,1.518-1.369,4.756,4.756,0,0,1,4.356,0,4.66,4.66,0,0,1,1.518,1.369,5.842,5.842,0,0,1,.875,1.931,8.673,8.673,0,0,1,0,4.372,6.053,6.053,0,0,1-.875,1.931,4.59,4.59,0,0,1-1.518,1.386A4.756,4.756,0,0,1,472.927,625.613Zm13.365,3.036h3.762v-6.105l2.244-2.178,5.214,8.283H502.1l-7.161-10.791,6.534-6.27h-4.62l-6.8,6.9v-13.4h-3.762v23.562Z" transform="translate(-78 -579)"/>
  <path id="icon" class="cls-2" d="M139.347,595H96.653A2.653,2.653,0,0,0,94,597.653v42.694A2.653,2.653,0,0,0,96.653,643h22.989V624.474h-6.274v-7.3h6.24v-5.331c0-6.206,3.781-9.583,9.314-9.583a52.6,52.6,0,0,1,5.625.32v6.476h-3.823c-3.007,0-3.588,1.423-3.588,3.52v4.631h7.2l-0.934,7.268h-6.266V643h12.211A2.652,2.652,0,0,0,142,640.347h0V597.653A2.652,2.652,0,0,0,139.347,595h0Z" transform="translate(-78 -579)"/>
</svg>
