<svg id="login-sm.svg" xmlns="http://www.w3.org/2000/svg" xmlns:xlink="http://www.w3.org/1999/xlink" width="124" height="40" viewBox="0 0 124 40">
  <defs>
    <style>
      .cls-1 {
        fill: #20123a;
        filter: url(#filter);
      }

      .cls-2 {
        fill: #fff;
        fill-rule: evenodd;
      }
    </style>
    <filter id="filter" x="0" y="0" width="124" height="40" filterUnits="userSpaceOnUse">
      <feFlood result="flood" flood-color="#4267b3"/>
      <feComposite result="composite" operator="in" in2="SourceGraphic"/>
      <feBlend result="blend" in2="SourceGraphic"/>
    </filter>
  </defs>
  <rect id="Rounded_Rectangle_1_copy_5" data-name="Rounded Rectangle 1 copy 5" class="cls-1" width="124" height="40" rx="6" ry="6"/>
  <path id="Log_In" data-name="Log In" class="cls-2" d="M258.982,874.649h10.736v-2.376h-7.986V858.941h-2.75v15.708Zm19.921-.143a5.2,5.2,0,0,0,1.8-1.243,5.329,5.329,0,0,0,1.122-1.892,7.3,7.3,0,0,0,.385-2.42,7.226,7.226,0,0,0-.385-2.4,5.32,5.32,0,0,0-1.122-1.892,5.185,5.185,0,0,0-1.8-1.243,6.777,6.777,0,0,0-4.862,0,5.166,5.166,0,0,0-1.8,1.243,5.291,5.291,0,0,0-1.122,1.892,7.2,7.2,0,0,0-.385,2.4,7.277,7.277,0,0,0,.385,2.42,5.3,5.3,0,0,0,1.122,1.892,5.179,5.179,0,0,0,1.8,1.243A6.777,6.777,0,0,0,278.9,874.506Zm-3.883-1.881a3.064,3.064,0,0,1-1.012-.924,4.031,4.031,0,0,1-.583-1.287,5.773,5.773,0,0,1,0-2.915,3.879,3.879,0,0,1,.583-1.287,3.1,3.1,0,0,1,1.012-.913,3.171,3.171,0,0,1,2.9,0,3.107,3.107,0,0,1,1.012.913,3.9,3.9,0,0,1,.583,1.287,5.773,5.773,0,0,1,0,2.915,4.053,4.053,0,0,1-.583,1.287,3.073,3.073,0,0,1-1.012.924A3.171,3.171,0,0,1,275.02,872.625Zm19.8-9.35h-2.508v1.562h-0.044a3.058,3.058,0,0,0-1.386-1.419,4.364,4.364,0,0,0-1.98-.451,4.921,4.921,0,0,0-2.167.462,4.843,4.843,0,0,0-1.617,1.243,5.527,5.527,0,0,0-1.012,1.815,6.7,6.7,0,0,0-.352,2.178,8.969,8.969,0,0,0,.286,2.31,5.387,5.387,0,0,0,.913,1.9,4.422,4.422,0,0,0,1.584,1.3,5.2,5.2,0,0,0,2.321.473,3.868,3.868,0,0,0,1.969-.528,3.824,3.824,0,0,0,1.441-1.474h0.044v1.738a3.033,3.033,0,0,1-.7,2.156,2.929,2.929,0,0,1-2.222.748,7.575,7.575,0,0,1-.924-0.055,2.4,2.4,0,0,1-.8-0.242,1.931,1.931,0,0,1-.627-0.517,2,2,0,0,1-.374-0.858H284.15a3.336,3.336,0,0,0,.572,1.672,3.82,3.82,0,0,0,1.2,1.1,5.153,5.153,0,0,0,1.584.594,8.7,8.7,0,0,0,1.727.176,6.1,6.1,0,0,0,4.147-1.265,4.844,4.844,0,0,0,1.441-3.839v-10.78Zm-6.919,9.064a2.876,2.876,0,0,1-.924-0.858,3.793,3.793,0,0,1-.539-1.2,5.373,5.373,0,0,1-.176-1.375,6.693,6.693,0,0,1,.154-1.419,3.914,3.914,0,0,1,.506-1.276,2.8,2.8,0,0,1,.924-0.913,2.634,2.634,0,0,1,1.408-.352,2.949,2.949,0,0,1,1.4.308,2.607,2.607,0,0,1,.946.836,3.8,3.8,0,0,1,.539,1.21,5.624,5.624,0,0,1,.176,1.408,6.391,6.391,0,0,1-.165,1.441,3.977,3.977,0,0,1-.528,1.276,2.662,2.662,0,0,1-2.365,1.243A2.624,2.624,0,0,1,287.9,872.339Zm15.916,2.31h2.75V858.941h-2.75v15.708Zm5.764,0h2.508v-6.71a3.412,3.412,0,0,1,.2-1.166,3,3,0,0,1,.55-0.957,2.479,2.479,0,0,1,.858-0.638,2.728,2.728,0,0,1,1.144-.231,2.075,2.075,0,0,1,1.65.605,3.087,3.087,0,0,1,.572,1.947v7.15h2.508v-7.81a3.7,3.7,0,0,0-1.078-2.9,4.246,4.246,0,0,0-2.948-.968,3.98,3.98,0,0,0-2.046.539,4.205,4.205,0,0,0-1.5,1.485l-0.044-.044v-1.672h-2.376v11.374Z" transform="translate(-214 -849)"/>
  <path id="icon" class="cls-2" d="M244.673,857H223.326A1.327,1.327,0,0,0,222,858.327v21.347A1.326,1.326,0,0,0,223.326,881h11.5v-9.263h-3.137v-3.651h3.12v-2.665c0-3.1,1.891-4.791,4.657-4.791a25.9,25.9,0,0,1,2.812.16v3.237h-1.911c-1.5,0-1.794.712-1.794,1.76V868.1h3.6l-0.467,3.634h-3.133V881h6.1A1.327,1.327,0,0,0,246,879.674h0V858.327A1.327,1.327,0,0,0,244.673,857h0Z" transform="translate(-214 -849)"/>
</svg>
