<svg id="continue-lg.svg" xmlns="http://www.w3.org/2000/svg" xmlns:xlink="http://www.w3.org/1999/xlink" width="506" height="80" viewBox="0 0 506 80">
  <defs>
    <style>
      .cls-1 {
        fill: #20123a;
        filter: url(#filter);
      }

      .cls-2 {
        fill: #fff;
        fill-rule: evenodd;
      }
    </style>
    <filter id="filter" x="0" y="0" width="506" height="80" filterUnits="userSpaceOnUse">
      <feFlood result="flood" flood-color="#4267b2"/>
      <feComposite result="composite" operator="in" in2="SourceGraphic"/>
      <feBlend result="blend" in2="SourceGraphic"/>
    </filter>
  </defs>
  <rect id="Rounded_Rectangle_1" data-name="Rounded Rectangle 1" class="cls-1" width="506" height="80" rx="8" ry="8"/>
  <path id="Continue_with_Facebook" data-name="Continue with Facebook" class="cls-2" d="M202.849,126.578a8.783,8.783,0,0,0-1.023-3.4,8.227,8.227,0,0,0-2.161-2.525,9.643,9.643,0,0,0-3.086-1.584,12.477,12.477,0,0,0-3.729-.544,10.951,10.951,0,0,0-4.735.99,10.6,10.6,0,0,0-3.548,2.673,11.865,11.865,0,0,0-2.227,3.927,15.039,15.039,0,0,0,0,9.537,11.865,11.865,0,0,0,2.227,3.927,10.4,10.4,0,0,0,3.548,2.656,11.109,11.109,0,0,0,4.735.974,10.748,10.748,0,0,0,3.927-.693,9.26,9.26,0,0,0,3.1-1.964,9.456,9.456,0,0,0,2.1-3.019,11.19,11.19,0,0,0,.907-3.861h-4.026a9.4,9.4,0,0,1-.561,2.409,6.209,6.209,0,0,1-1.188,1.963,5.423,5.423,0,0,1-1.815,1.32,5.863,5.863,0,0,1-2.442.479,6.6,6.6,0,0,1-3.25-.759,6.376,6.376,0,0,1-2.228-2.03,9.142,9.142,0,0,1-1.27-2.887,13.391,13.391,0,0,1,0-6.6,9.157,9.157,0,0,1,1.27-2.888,6.383,6.383,0,0,1,2.228-2.029,6.6,6.6,0,0,1,3.25-.759,6.736,6.736,0,0,1,2.261.346,5.288,5.288,0,0,1,1.7.974A5.2,5.2,0,0,1,198,124.7a8.353,8.353,0,0,1,.726,1.881h4.125Zm13.909,15.856a7.762,7.762,0,0,0,2.706-1.864,7.975,7.975,0,0,0,1.683-2.838,11.584,11.584,0,0,0,0-7.227,7.975,7.975,0,0,0-1.683-2.838,7.777,7.777,0,0,0-2.706-1.865,10.173,10.173,0,0,0-7.293,0,7.777,7.777,0,0,0-2.706,1.865,7.975,7.975,0,0,0-1.683,2.838,11.6,11.6,0,0,0,0,7.227,7.975,7.975,0,0,0,1.683,2.838,7.762,7.762,0,0,0,2.706,1.864A10.159,10.159,0,0,0,216.758,142.434Zm-5.824-2.821a4.59,4.59,0,0,1-1.518-1.386,6.053,6.053,0,0,1-.875-1.931,8.673,8.673,0,0,1,0-4.372,5.842,5.842,0,0,1,.875-1.931,4.66,4.66,0,0,1,1.518-1.369,4.756,4.756,0,0,1,4.356,0,4.67,4.67,0,0,1,1.518,1.369,5.84,5.84,0,0,1,.874,1.931,8.643,8.643,0,0,1,0,4.372,6.051,6.051,0,0,1-.874,1.931,4.6,4.6,0,0,1-1.518,1.386A4.756,4.756,0,0,1,210.934,139.613Zm13.1,3.036H227.8V132.584a5.124,5.124,0,0,1,.3-1.749,4.512,4.512,0,0,1,.825-1.436,3.721,3.721,0,0,1,1.287-.957,4.087,4.087,0,0,1,1.716-.346A3.116,3.116,0,0,1,234.4,129a4.639,4.639,0,0,1,.858,2.921v10.725h3.762V130.934a5.557,5.557,0,0,0-1.617-4.356,6.377,6.377,0,0,0-4.422-1.452,5.979,5.979,0,0,0-3.069.808,6.317,6.317,0,0,0-2.244,2.228L227.6,128.1v-2.508h-3.564v17.061Zm16.4-14.256h2.838v10.065a10.308,10.308,0,0,0,.214,1.881,2.845,2.845,0,0,0,.693,1.369,3.185,3.185,0,0,0,1.419.825,8.33,8.33,0,0,0,2.393.281,11.3,11.3,0,0,0,1.221-.066q0.594-.067,1.221-0.132v-2.9a3.932,3.932,0,0,1-.792.115c-0.264.012-.528,0.017-0.792,0.017a2.678,2.678,0,0,1-.99-0.149,1.1,1.1,0,0,1-.545-0.445,1.766,1.766,0,0,1-.231-0.726,9.1,9.1,0,0,1-.049-1.023v-9.108h3.4v-2.805h-3.4v-5.115h-3.762v5.115h-2.838v2.805Zm11.979-5.742h3.762v-3.564h-3.762v3.564Zm0,20h3.762V125.588h-3.762v17.061Zm7.029,0h3.762V132.584a5.124,5.124,0,0,1,.3-1.749,4.493,4.493,0,0,1,.825-1.436,3.7,3.7,0,0,1,1.287-.957,4.081,4.081,0,0,1,1.716-.346,3.116,3.116,0,0,1,2.475.907,4.645,4.645,0,0,1,.858,2.921v10.725h3.762V130.934a5.561,5.561,0,0,0-1.617-4.356,6.381,6.381,0,0,0-4.422-1.452,5.979,5.979,0,0,0-3.069.808,6.309,6.309,0,0,0-2.244,2.228l-0.066-.066v-2.508h-3.564v17.061Zm33.1-17.061h-3.762v9.9a7.6,7.6,0,0,1-.214,1.848,3.746,3.746,0,0,1-.71,1.468,3.493,3.493,0,0,1-1.287.974,4.752,4.752,0,0,1-1.98.363,3.125,3.125,0,0,1-2.409-.924,4.628,4.628,0,0,1-.858-3.168V125.588h-3.762v10.824a7.31,7.31,0,0,0,1.5,5.032q1.5,1.667,4.867,1.667a5.6,5.6,0,0,0,2.789-.776,5.165,5.165,0,0,0,2.062-2.062h0.066v2.376h3.7V125.588Zm6.072,7.029a5.008,5.008,0,0,1,.379-1.782,4.748,4.748,0,0,1,.924-1.436,4.113,4.113,0,0,1,1.386-.957,4.523,4.523,0,0,1,1.8-.346,3.9,3.9,0,0,1,1.732.379,4.249,4.249,0,0,1,1.32.99,4.586,4.586,0,0,1,.858,1.436,6.067,6.067,0,0,1,.38,1.716h-8.778Zm12.54,2.475a9.765,9.765,0,0,0-.248-3.713,9.016,9.016,0,0,0-1.534-3.184,7.932,7.932,0,0,0-2.657-2.228,7.644,7.644,0,0,0-3.613-.841,7.745,7.745,0,0,0-6.023,2.689,8.828,8.828,0,0,0-1.65,2.871,10.272,10.272,0,0,0-.577,3.449,11.529,11.529,0,0,0,.544,3.63,7.842,7.842,0,0,0,1.617,2.838,7.37,7.37,0,0,0,2.624,1.848,9.051,9.051,0,0,0,3.564.66,9.229,9.229,0,0,0,2.656-.38,7.529,7.529,0,0,0,2.294-1.122,7.071,7.071,0,0,0,2.772-4.306h-3.564a4.193,4.193,0,0,1-1.5,2.128,4.51,4.51,0,0,1-2.656.71,4.668,4.668,0,0,1-2.046-.413,4.055,4.055,0,0,1-1.419-1.105,4.717,4.717,0,0,1-.842-1.617,6.552,6.552,0,0,1-.28-1.914h12.54Zm14.124,7.557h3.96l3.135-12.672h0.066l3.168,12.672h3.861l5.346-17.061h-3.828l-3.465,12.738h-0.066l-3.069-12.738h-3.8l-3.2,12.738h-0.066l-3.333-12.738H320Zm21.219-20h3.762v-3.564H346.5v3.564Zm0,20h3.762V125.588H346.5v17.061Zm5.313-14.256h2.838v10.065a10.308,10.308,0,0,0,.214,1.881,2.845,2.845,0,0,0,.693,1.369,3.185,3.185,0,0,0,1.419.825,8.33,8.33,0,0,0,2.393.281,11.3,11.3,0,0,0,1.221-.066q0.594-.067,1.221-0.132v-2.9a3.932,3.932,0,0,1-.792.115c-0.264.012-.528,0.017-0.792,0.017a2.678,2.678,0,0,1-.99-0.149,1.1,1.1,0,0,1-.545-0.445,1.766,1.766,0,0,1-.231-0.726,9.1,9.1,0,0,1-.049-1.023v-9.108h3.4v-2.805h-3.4v-5.115h-3.762v5.115h-2.838v2.805Zm11.88,14.256h3.762V132.584a5.124,5.124,0,0,1,.3-1.749,4.493,4.493,0,0,1,.825-1.436,3.7,3.7,0,0,1,1.287-.957,4.081,4.081,0,0,1,1.716-.346,3.116,3.116,0,0,1,2.475.907,4.645,4.645,0,0,1,.858,2.921v10.725h3.762V130.934a5.561,5.561,0,0,0-1.617-4.356,6.381,6.381,0,0,0-4.422-1.452,6.1,6.1,0,0,0-3.053.775,5.48,5.48,0,0,0-2.062,1.931h-0.066v-8.745h-3.762v23.562Zm26.993,0h4.125V132.188h10.659v-3.366H394.807v-6.171h12.144v-3.564H390.682v23.562Zm32.5-12.573a4.212,4.212,0,0,0-.594-2.294,4.753,4.753,0,0,0-1.568-1.534,7.027,7.027,0,0,0-2.194-.858,11.678,11.678,0,0,0-2.475-.264,14.441,14.441,0,0,0-2.772.264,7.226,7.226,0,0,0-2.426.924,5.47,5.47,0,0,0-1.765,1.749,5.663,5.663,0,0,0-.792,2.739h3.762a2.574,2.574,0,0,1,1.155-2.046,4.726,4.726,0,0,1,2.607-.66,9.3,9.3,0,0,1,1.188.082,3.7,3.7,0,0,1,1.138.33,2.327,2.327,0,0,1,.858.71,1.927,1.927,0,0,1,.347,1.188,1.68,1.68,0,0,1-.413,1.237,2.493,2.493,0,0,1-1.122.611,9.044,9.044,0,0,1-1.633.28,19.311,19.311,0,0,0-1.947.281q-1.188.132-2.36,0.379a6.856,6.856,0,0,0-2.112.809,4.278,4.278,0,0,0-1.518,1.551,5.068,5.068,0,0,0-.577,2.574,4.776,4.776,0,0,0,.478,2.194,4.428,4.428,0,0,0,1.287,1.551,5.785,5.785,0,0,0,1.865.924,7.728,7.728,0,0,0,2.211.314,10.848,10.848,0,0,0,3.151-.495,6.655,6.655,0,0,0,2.756-1.584,2.3,2.3,0,0,0,.99,1.617,3.636,3.636,0,0,0,1.914.462c0.154,0,.341-0.012.561-0.033s0.44-.056.66-0.1,0.434-.094.643-0.149,0.38-.105.512-0.148v-2.607a2.466,2.466,0,0,1-.528.066h-0.4a0.766,0.766,0,0,1-.71-0.3,2,2,0,0,1-.181-0.99v-8.778Zm-3.762,6.831a2.545,2.545,0,0,1-.429,1.5,3.6,3.6,0,0,1-1.073,1.007,4.5,4.5,0,0,1-1.369.561,6.127,6.127,0,0,1-1.353.165,6.971,6.971,0,0,1-1.106-.1,4.05,4.05,0,0,1-1.122-.347,2.633,2.633,0,0,1-.874-0.676,1.579,1.579,0,0,1-.363-1.056,2.826,2.826,0,0,1,.247-1.238,2.182,2.182,0,0,1,.677-0.825,3.479,3.479,0,0,1,.99-0.5,8.175,8.175,0,0,1,1.155-.28q1.254-.231,2.508-0.347a4.567,4.567,0,0,0,2.112-.676v2.805ZM441.7,131.3a6.554,6.554,0,0,0-.792-2.739,6.061,6.061,0,0,0-1.7-1.914,7.432,7.432,0,0,0-2.376-1.139,10.317,10.317,0,0,0-2.821-.379,8.857,8.857,0,0,0-3.68.709,7.422,7.422,0,0,0-2.623,1.947,8.241,8.241,0,0,0-1.584,2.921,11.951,11.951,0,0,0-.528,3.6,10.9,10.9,0,0,0,.544,3.5,7.838,7.838,0,0,0,1.6,2.788,7.5,7.5,0,0,0,2.59,1.848,8.725,8.725,0,0,0,3.548.677,7.7,7.7,0,0,0,5.3-1.766,8.26,8.26,0,0,0,2.525-5.1h-3.762a4.761,4.761,0,0,1-1.337,2.871,3.784,3.784,0,0,1-2.722,1.023,3.981,3.981,0,0,1-2.079-.512,4.289,4.289,0,0,1-1.4-1.336,5.774,5.774,0,0,1-.792-1.881,9.227,9.227,0,0,1-.247-2.112,8.962,8.962,0,0,1,.462-3.152,5.18,5.18,0,0,1,1.155-1.881,3.691,3.691,0,0,1,1.518-.924,5.408,5.408,0,0,1,1.551-.247,4.144,4.144,0,0,1,2.623.808,3.533,3.533,0,0,1,1.271,2.393H441.7Zm5.181,1.32a5.008,5.008,0,0,1,.379-1.782,4.748,4.748,0,0,1,.924-1.436,4.113,4.113,0,0,1,1.386-.957,4.523,4.523,0,0,1,1.8-.346,3.9,3.9,0,0,1,1.732.379,4.249,4.249,0,0,1,1.32.99,4.586,4.586,0,0,1,.858,1.436,6.067,6.067,0,0,1,.38,1.716h-8.778Zm12.54,2.475a9.765,9.765,0,0,0-.248-3.713,9.016,9.016,0,0,0-1.534-3.184,7.932,7.932,0,0,0-2.657-2.228,7.644,7.644,0,0,0-3.613-.841,7.745,7.745,0,0,0-6.023,2.689,8.828,8.828,0,0,0-1.65,2.871,10.272,10.272,0,0,0-.577,3.449,11.529,11.529,0,0,0,.544,3.63,7.842,7.842,0,0,0,1.617,2.838,7.37,7.37,0,0,0,2.624,1.848,9.051,9.051,0,0,0,3.564.66,9.229,9.229,0,0,0,2.656-.38,7.529,7.529,0,0,0,2.294-1.122,7.071,7.071,0,0,0,2.772-4.306h-3.564a4.193,4.193,0,0,1-1.5,2.128,4.51,4.51,0,0,1-2.656.71,4.668,4.668,0,0,1-2.046-.413A4.055,4.055,0,0,1,448,138.623a4.717,4.717,0,0,1-.842-1.617,6.552,6.552,0,0,1-.28-1.914h12.54Zm2.145,7.557h3.564v-2.343H465.2a4.159,4.159,0,0,0,1.072,1.386,5.715,5.715,0,0,0,1.436.858,6.576,6.576,0,0,0,1.666.445,13.229,13.229,0,0,0,1.733.116,6.594,6.594,0,0,0,5.56-2.723,8.668,8.668,0,0,0,1.353-2.854,12.491,12.491,0,0,0,.446-3.333,12.23,12.23,0,0,0-.5-3.531,8.46,8.46,0,0,0-1.485-2.888,6.942,6.942,0,0,0-2.492-1.947,8.148,8.148,0,0,0-3.514-.709,6.222,6.222,0,0,0-1.469.181,6.474,6.474,0,0,0-1.419.528,5.986,5.986,0,0,0-1.237.842,5.147,5.147,0,0,0-.957,1.122h-0.066v-8.712h-3.762v23.562Zm12.886-6.32a5.553,5.553,0,0,1-.825,1.914,4.605,4.605,0,0,1-1.468,1.37,4.2,4.2,0,0,1-2.178.528,4.284,4.284,0,0,1-2.03-.462,4.684,4.684,0,0,1-1.5-1.254,5.379,5.379,0,0,1-.941-1.9,8.736,8.736,0,0,1-.313-2.392,7.281,7.281,0,0,1,1.2-4.389,4.149,4.149,0,0,1,3.581-1.65,4.035,4.035,0,0,1,2.046.511,4.612,4.612,0,0,1,1.485,1.353,6.1,6.1,0,0,1,.891,1.931,8.49,8.49,0,0,1,.3,2.244A9.717,9.717,0,0,1,474.452,136.329Zm17.82,6.1a7.762,7.762,0,0,0,2.706-1.864,7.975,7.975,0,0,0,1.683-2.838,11.584,11.584,0,0,0,0-7.227,7.975,7.975,0,0,0-1.683-2.838,7.777,7.777,0,0,0-2.706-1.865,10.173,10.173,0,0,0-7.293,0,7.777,7.777,0,0,0-2.706,1.865,7.975,7.975,0,0,0-1.683,2.838,11.6,11.6,0,0,0,0,7.227,7.975,7.975,0,0,0,1.683,2.838,7.762,7.762,0,0,0,2.706,1.864A10.159,10.159,0,0,0,492.272,142.434Zm-5.824-2.821a4.58,4.58,0,0,1-1.518-1.386,6.053,6.053,0,0,1-.875-1.931,8.673,8.673,0,0,1,0-4.372,5.842,5.842,0,0,1,.875-1.931,4.65,4.65,0,0,1,1.518-1.369,4.756,4.756,0,0,1,4.356,0,4.67,4.67,0,0,1,1.518,1.369,5.84,5.84,0,0,1,.874,1.931,8.643,8.643,0,0,1,0,4.372,6.051,6.051,0,0,1-.874,1.931,4.6,4.6,0,0,1-1.518,1.386A4.756,4.756,0,0,1,486.448,139.613Zm24.568,2.821a7.771,7.771,0,0,0,2.706-1.864,8,8,0,0,0,1.683-2.838,11.6,11.6,0,0,0,0-7.227,8,8,0,0,0-1.683-2.838,7.787,7.787,0,0,0-2.706-1.865,10.173,10.173,0,0,0-7.293,0,7.768,7.768,0,0,0-2.706,1.865,7.945,7.945,0,0,0-1.683,2.838,11.584,11.584,0,0,0,0,7.227,7.945,7.945,0,0,0,1.683,2.838,7.753,7.753,0,0,0,2.706,1.864A10.159,10.159,0,0,0,511.016,142.434Zm-5.825-2.821a4.59,4.59,0,0,1-1.518-1.386,6.029,6.029,0,0,1-.874-1.931,8.643,8.643,0,0,1,0-4.372,5.82,5.82,0,0,1,.874-1.931,4.66,4.66,0,0,1,1.518-1.369,4.756,4.756,0,0,1,4.356,0,4.66,4.66,0,0,1,1.518,1.369,5.862,5.862,0,0,1,.875,1.931,8.673,8.673,0,0,1,0,4.372,6.074,6.074,0,0,1-.875,1.931,4.59,4.59,0,0,1-1.518,1.386A4.756,4.756,0,0,1,505.191,139.613Zm13.2,3.036h3.762v-6.1l2.244-2.178,5.214,8.283H534.2l-7.161-10.791,6.534-6.27h-4.62l-6.8,6.9v-13.4h-3.762v23.562Z" transform="translate(-77 -93)"/>
  <path id="icon" class="cls-2" d="M138.347,109H95.653A2.653,2.653,0,0,0,93,111.653v42.694A2.653,2.653,0,0,0,95.653,157h22.989V138.474h-6.274v-7.3h6.24v-5.331c0-6.206,3.781-9.583,9.314-9.583a52.6,52.6,0,0,1,5.625.32v6.476h-3.823c-3.007,0-3.588,1.423-3.588,3.52v4.631h7.2l-0.934,7.268h-6.266V157h12.211A2.652,2.652,0,0,0,141,154.347h0V111.653A2.652,2.652,0,0,0,138.347,109h0Z" transform="translate(-77 -93)"/>
</svg>
