<svg id="login-md.svg" xmlns="http://www.w3.org/2000/svg" xmlns:xlink="http://www.w3.org/1999/xlink" width="333" height="56" viewBox="0 0 333 56">
  <defs>
    <style>
      .cls-1 {
        fill: #20123a;
        filter: url(#filter);
      }

      .cls-2 {
        fill: #fff;
        fill-rule: evenodd;
      }
    </style>
    <filter id="filter" x="0" y="0" width="333" height="56" filterUnits="userSpaceOnUse">
      <feFlood result="flood" flood-color="#4267b2"/>
      <feComposite result="composite" operator="in" in2="SourceGraphic"/>
      <feBlend result="blend" in2="SourceGraphic"/>
    </filter>
  </defs>
  <rect id="Rounded_Rectangle_1_copy_4" data-name="Rounded Rectangle 1 copy 4" class="cls-1" width="333" height="56" rx="6" ry="6"/>
  <path id="Log_in_With_Facebook" data-name="Log in With Facebook" class="cls-2" d="M182.286,754.649h12.688v-2.808h-9.438V736.085h-3.25v18.564Zm23.465-.169a6.122,6.122,0,0,0,2.132-1.469,6.285,6.285,0,0,0,1.326-2.236,9.134,9.134,0,0,0,0-5.694,6.285,6.285,0,0,0-1.326-2.236,6.122,6.122,0,0,0-2.132-1.469,8.01,8.01,0,0,0-5.746,0,6.122,6.122,0,0,0-2.132,1.469,6.27,6.27,0,0,0-1.326,2.236,9.134,9.134,0,0,0,0,5.694,6.27,6.27,0,0,0,1.326,2.236,6.122,6.122,0,0,0,2.132,1.469A8.01,8.01,0,0,0,205.751,754.48Zm-4.589-2.223a3.6,3.6,0,0,1-1.2-1.092,4.765,4.765,0,0,1-.689-1.521,6.823,6.823,0,0,1,0-3.445,4.593,4.593,0,0,1,.689-1.521,3.662,3.662,0,0,1,1.2-1.079,3.747,3.747,0,0,1,3.432,0,3.672,3.672,0,0,1,1.2,1.079,4.593,4.593,0,0,1,.689,1.521,6.823,6.823,0,0,1,0,3.445,4.765,4.765,0,0,1-.689,1.521,3.612,3.612,0,0,1-1.2,1.092A3.747,3.747,0,0,1,201.162,752.257Zm23.322-11.05H221.52v1.846h-0.052a3.621,3.621,0,0,0-1.638-1.677,5.165,5.165,0,0,0-2.34-.533,5.815,5.815,0,0,0-2.561.546,5.733,5.733,0,0,0-1.911,1.469,6.549,6.549,0,0,0-1.2,2.145,7.917,7.917,0,0,0-.416,2.574,10.58,10.58,0,0,0,.338,2.73,6.371,6.371,0,0,0,1.079,2.249,5.222,5.222,0,0,0,1.872,1.534,6.137,6.137,0,0,0,2.743.559,4.572,4.572,0,0,0,2.327-.624,4.513,4.513,0,0,0,1.7-1.742h0.052v2.054a3.585,3.585,0,0,1-.832,2.548,3.459,3.459,0,0,1-2.626.884,8.856,8.856,0,0,1-1.092-.065,2.838,2.838,0,0,1-.949-0.286,2.286,2.286,0,0,1-.741-0.611,2.365,2.365,0,0,1-.442-1.014h-2.964a3.945,3.945,0,0,0,.676,1.976,4.514,4.514,0,0,0,1.417,1.3,6.076,6.076,0,0,0,1.872.7,10.3,10.3,0,0,0,2.041.208,7.211,7.211,0,0,0,4.9-1.5,5.723,5.723,0,0,0,1.7-4.537v-12.74Zm-8.177,10.712a3.4,3.4,0,0,1-1.092-1.014,4.469,4.469,0,0,1-.637-1.417,6.363,6.363,0,0,1-.208-1.625,7.9,7.9,0,0,1,.182-1.677,4.637,4.637,0,0,1,.6-1.508,3.323,3.323,0,0,1,1.092-1.079,3.12,3.12,0,0,1,1.664-.416,3.49,3.49,0,0,1,1.651.364,3.084,3.084,0,0,1,1.118.988,4.483,4.483,0,0,1,.637,1.43,6.661,6.661,0,0,1,.208,1.664,7.548,7.548,0,0,1-.2,1.7,4.7,4.7,0,0,1-.624,1.508,3.146,3.146,0,0,1-2.795,1.469A3.1,3.1,0,0,1,216.307,751.919Zm18.316-13.026h2.964v-2.808h-2.964v2.808Zm0,15.756h2.964V741.207h-2.964v13.442Zm6.11,0H243.7v-7.93a4.037,4.037,0,0,1,.234-1.378,3.558,3.558,0,0,1,.65-1.131,2.922,2.922,0,0,1,1.014-.754,3.22,3.22,0,0,1,1.352-.273,2.454,2.454,0,0,1,1.95.715,3.656,3.656,0,0,1,.676,2.3v8.45h2.964v-9.23a4.381,4.381,0,0,0-1.274-3.432,5.023,5.023,0,0,0-3.484-1.144,4.708,4.708,0,0,0-2.418.637,4.978,4.978,0,0,0-1.768,1.755l-0.052-.052v-1.976h-2.808v13.442Zm25.48,0h3.354l3.8-14.2h0.052l3.718,14.2h3.3l5.122-18.564h-3.3l-3.458,14.2h-0.052l-3.64-14.2h-3.328l-3.744,14.2h-0.052l-3.354-14.2h-3.3Zm21.06-15.756h2.964v-2.808h-2.964v2.808Zm0,15.756h2.964V741.207h-2.964v13.442Zm4.758-11.232h2.236v7.93a8.026,8.026,0,0,0,.169,1.482,2.246,2.246,0,0,0,.545,1.079,2.517,2.517,0,0,0,1.119.65,6.57,6.57,0,0,0,1.885.221,8.892,8.892,0,0,0,.962-0.052c0.312-.035.632-0.07,0.962-0.1v-2.288a3.123,3.123,0,0,1-.624.091q-0.312.013-.624,0.013a2.106,2.106,0,0,1-.78-0.117,0.867,0.867,0,0,1-.429-0.351,1.383,1.383,0,0,1-.182-0.572,7.153,7.153,0,0,1-.039-0.806v-7.176h2.678v-2.21h-2.678v-4.03h-2.964v4.03h-2.236v2.21Zm9.931,11.232h2.964v-7.93a4.037,4.037,0,0,1,.234-1.378,3.558,3.558,0,0,1,.65-1.131,2.922,2.922,0,0,1,1.014-.754,3.22,3.22,0,0,1,1.352-.273,2.454,2.454,0,0,1,1.95.715,3.656,3.656,0,0,1,.676,2.3v8.45h2.964v-9.23a4.381,4.381,0,0,0-1.274-3.432,5.023,5.023,0,0,0-3.484-1.144,4.8,4.8,0,0,0-2.4.611,4.315,4.315,0,0,0-1.625,1.521h-0.052v-6.89h-2.964v18.564Zm22.412,0h3.25v-8.242h8.4v-2.652h-8.4v-4.862h9.568v-2.808H324.374v18.564Zm26.182-9.906a3.316,3.316,0,0,0-.468-1.807,3.748,3.748,0,0,0-1.235-1.209,5.557,5.557,0,0,0-1.729-.676,9.189,9.189,0,0,0-1.95-.208,11.341,11.341,0,0,0-2.184.208,5.685,5.685,0,0,0-1.911.728,4.307,4.307,0,0,0-1.391,1.378,4.46,4.46,0,0,0-.624,2.158h2.964a2.026,2.026,0,0,1,.91-1.612,3.72,3.72,0,0,1,2.054-.52,7.263,7.263,0,0,1,.936.065,2.916,2.916,0,0,1,.9.26,1.834,1.834,0,0,1,.676.559,1.52,1.52,0,0,1,.273.936,1.328,1.328,0,0,1-.325.975,1.973,1.973,0,0,1-.884.481,7.179,7.179,0,0,1-1.287.221,15.075,15.075,0,0,0-1.534.221q-0.936.1-1.859,0.3a5.387,5.387,0,0,0-1.664.637,3.371,3.371,0,0,0-1.2,1.222,3.986,3.986,0,0,0-.455,2.028,3.755,3.755,0,0,0,.377,1.729,3.485,3.485,0,0,0,1.014,1.222,4.561,4.561,0,0,0,1.469.728,6.107,6.107,0,0,0,1.742.247,8.551,8.551,0,0,0,2.483-.39,5.246,5.246,0,0,0,2.171-1.248,1.811,1.811,0,0,0,.78,1.274,2.861,2.861,0,0,0,1.508.364c0.121,0,.268-0.009.442-0.026s0.346-.044.52-0.078,0.342-.074.507-0.117,0.3-.083.4-0.117v-2.054a1.924,1.924,0,0,1-.416.052h-0.312a0.6,0.6,0,0,1-.559-0.234,1.565,1.565,0,0,1-.143-0.78v-6.916Zm-2.964,5.382a2.009,2.009,0,0,1-.338,1.183,2.844,2.844,0,0,1-.845.793,3.557,3.557,0,0,1-1.079.442,4.814,4.814,0,0,1-1.066.13,5.481,5.481,0,0,1-.871-0.078,3.18,3.18,0,0,1-.884-0.273,2.072,2.072,0,0,1-.689-0.533,1.242,1.242,0,0,1-.286-0.832,2.225,2.225,0,0,1,.195-0.975,1.706,1.706,0,0,1,.533-0.65,2.715,2.715,0,0,1,.78-0.39,6.358,6.358,0,0,1,.91-0.221q0.987-.181,1.976-0.273a3.6,3.6,0,0,0,1.664-.533v2.21Zm18.122-4.42a5.185,5.185,0,0,0-.624-2.158,4.778,4.778,0,0,0-1.339-1.508,5.841,5.841,0,0,0-1.872-.9,8.114,8.114,0,0,0-2.223-.3,6.968,6.968,0,0,0-2.9.559,5.832,5.832,0,0,0-2.067,1.534,6.481,6.481,0,0,0-1.248,2.3,9.4,9.4,0,0,0-.416,2.834,8.583,8.583,0,0,0,.429,2.756,6.178,6.178,0,0,0,1.261,2.2,5.918,5.918,0,0,0,2.041,1.456,6.875,6.875,0,0,0,2.8.533,6.071,6.071,0,0,0,4.173-1.391,6.516,6.516,0,0,0,1.989-4.017H362.75a3.748,3.748,0,0,1-1.053,2.262,2.986,2.986,0,0,1-2.145.806,3.138,3.138,0,0,1-1.638-.4,3.383,3.383,0,0,1-1.1-1.053,4.543,4.543,0,0,1-.624-1.482,7.27,7.27,0,0,1-.195-1.664,7.048,7.048,0,0,1,.364-2.483,4.067,4.067,0,0,1,.91-1.482,2.9,2.9,0,0,1,1.2-.728,4.256,4.256,0,0,1,1.222-.2,3.264,3.264,0,0,1,2.067.637,2.784,2.784,0,0,1,1,1.885h2.964Zm4.654,1.04a3.935,3.935,0,0,1,.3-1.4,3.725,3.725,0,0,1,.728-1.131,3.229,3.229,0,0,1,1.092-.754,3.559,3.559,0,0,1,1.417-.273,3.072,3.072,0,0,1,1.365.3,3.341,3.341,0,0,1,1.04.78,3.616,3.616,0,0,1,.676,1.131,4.812,4.812,0,0,1,.3,1.352h-6.916Zm9.88,1.95a7.705,7.705,0,0,0-.195-2.925,7.126,7.126,0,0,0-1.209-2.509,6.257,6.257,0,0,0-2.093-1.755,6.026,6.026,0,0,0-2.847-.663,6.1,6.1,0,0,0-4.745,2.119,6.937,6.937,0,0,0-1.3,2.262,8.076,8.076,0,0,0-.455,2.717,9.085,9.085,0,0,0,.429,2.86,6.166,6.166,0,0,0,1.274,2.236,5.8,5.8,0,0,0,2.067,1.456,7.125,7.125,0,0,0,2.808.52,7.289,7.289,0,0,0,2.093-.3,5.952,5.952,0,0,0,1.807-.884,5.573,5.573,0,0,0,2.184-3.393h-2.808a3.311,3.311,0,0,1-1.183,1.677,3.56,3.56,0,0,1-2.093.559,3.682,3.682,0,0,1-1.612-.325,3.19,3.19,0,0,1-1.118-.871,3.707,3.707,0,0,1-.663-1.274,5.139,5.139,0,0,1-.221-1.508h9.88Zm2.262,5.954h2.808V752.8h0.052a3.277,3.277,0,0,0,.845,1.092,4.5,4.5,0,0,0,1.131.676,5.172,5.172,0,0,0,1.313.351,10.524,10.524,0,0,0,1.365.091,5.2,5.2,0,0,0,4.381-2.145,6.847,6.847,0,0,0,1.066-2.249,9.841,9.841,0,0,0,.351-2.626,9.637,9.637,0,0,0-.39-2.782,6.66,6.66,0,0,0-1.17-2.275A5.469,5.469,0,0,0,392.3,741.4a6.416,6.416,0,0,0-2.769-.559,4.872,4.872,0,0,0-1.157.143,5.077,5.077,0,0,0-1.118.416,4.682,4.682,0,0,0-.975.663,4.076,4.076,0,0,0-.754.884h-0.052v-6.864H382.51v18.564Zm10.153-4.979a4.384,4.384,0,0,1-.65,1.508,3.632,3.632,0,0,1-1.157,1.079,3.315,3.315,0,0,1-1.716.416,3.368,3.368,0,0,1-1.6-.364,3.694,3.694,0,0,1-1.183-.988,4.217,4.217,0,0,1-.741-1.5,6.875,6.875,0,0,1-.247-1.885,5.735,5.735,0,0,1,.949-3.458,3.267,3.267,0,0,1,2.821-1.3,3.178,3.178,0,0,1,1.612.4,3.629,3.629,0,0,1,1.17,1.066,4.8,4.8,0,0,1,.7,1.521,6.687,6.687,0,0,1,.234,1.768A7.664,7.664,0,0,1,392.663,749.67Zm14.611,4.81a6.113,6.113,0,0,0,2.132-1.469,6.27,6.27,0,0,0,1.326-2.236,9.134,9.134,0,0,0,0-5.694,6.27,6.27,0,0,0-1.326-2.236,6.113,6.113,0,0,0-2.132-1.469,8.01,8.01,0,0,0-5.746,0,6.132,6.132,0,0,0-2.132,1.469,6.3,6.3,0,0,0-1.326,2.236,9.134,9.134,0,0,0,0,5.694,6.3,6.3,0,0,0,1.326,2.236,6.132,6.132,0,0,0,2.132,1.469A8.01,8.01,0,0,0,407.274,754.48Zm-4.589-2.223a3.612,3.612,0,0,1-1.2-1.092,4.787,4.787,0,0,1-.689-1.521,6.823,6.823,0,0,1,0-3.445,4.613,4.613,0,0,1,.689-1.521,3.672,3.672,0,0,1,1.2-1.079,3.747,3.747,0,0,1,3.432,0,3.662,3.662,0,0,1,1.2,1.079A4.593,4.593,0,0,1,408,746.2a6.823,6.823,0,0,1,0,3.445,4.765,4.765,0,0,1-.689,1.521,3.6,3.6,0,0,1-1.2,1.092A3.747,3.747,0,0,1,402.685,752.257Zm19.929,2.223a6.122,6.122,0,0,0,2.132-1.469,6.27,6.27,0,0,0,1.326-2.236,9.134,9.134,0,0,0,0-5.694,6.27,6.27,0,0,0-1.326-2.236,6.122,6.122,0,0,0-2.132-1.469,8.01,8.01,0,0,0-5.746,0,6.122,6.122,0,0,0-2.132,1.469,6.27,6.27,0,0,0-1.326,2.236,9.134,9.134,0,0,0,0,5.694,6.27,6.27,0,0,0,1.326,2.236,6.122,6.122,0,0,0,2.132,1.469A8.01,8.01,0,0,0,422.614,754.48Zm-4.589-2.223a3.612,3.612,0,0,1-1.2-1.092,4.765,4.765,0,0,1-.689-1.521,6.823,6.823,0,0,1,0-3.445,4.593,4.593,0,0,1,.689-1.521,3.672,3.672,0,0,1,1.2-1.079,3.747,3.747,0,0,1,3.432,0,3.672,3.672,0,0,1,1.2,1.079,4.593,4.593,0,0,1,.689,1.521,6.823,6.823,0,0,1,0,3.445,4.765,4.765,0,0,1-.689,1.521,3.612,3.612,0,0,1-1.2,1.092A3.747,3.747,0,0,1,418.025,752.257ZM429,754.649h2.964v-4.81l1.768-1.716,4.108,6.526h3.614l-5.642-8.5,5.148-4.94h-3.64l-5.356,5.434V736.085H429v18.564Z" transform="translate(-125 -719)"/>
  <path id="icon" class="cls-2" d="M167.231,731H138.768A1.769,1.769,0,0,0,137,732.769v28.462A1.769,1.769,0,0,0,138.768,763H154.1V750.649h-4.183v-4.867h4.16v-3.554c0-4.137,2.521-6.388,6.209-6.388a34.544,34.544,0,0,1,3.75.213v4.317h-2.549c-2,0-2.391.949-2.391,2.347V745.8h4.8l-0.623,4.845h-4.177V763h8.14A1.769,1.769,0,0,0,169,761.231h0V732.769A1.769,1.769,0,0,0,167.231,731h0Z" transform="translate(-125 -719)"/>
</svg>
