<?xml version="1.0" encoding="UTF-8"?>
<svg width="17px" height="14px" viewBox="0 0 17 14" version="1.1" xmlns="http://www.w3.org/2000/svg" xmlns:xlink="http://www.w3.org/1999/xlink">
    <!-- Generator: sketchtool 60.1 (101010) - https://sketch.com -->
    <g id="Asset-Artboard-Page" stroke="none" stroke-width="1" fill="none" fill-rule="evenodd" fill-opacity="0.8">
        <g id="Add-list-remove" transform="translate(0.674556, 0.000000)" fill="#0C0C0D">
            <g id="Group-5" transform="translate(8.470588, 6.863014) scale(-1, 1) rotate(270.000000) translate(-8.470588, -6.863014) translate(1.882353, -0.980431)">
                <path d="M12.2352941,0 L0.941176471,0 C0.420705882,0 0,0.438252449 0,0.980430535 L0,7.84344428 C0,8.38562237 0.420705882,8.82387481 0.941176471,8.82387481 L2.82352941,8.82387481 C3.344,8.82387481 3.76470588,8.38562237 3.76470588,7.84344428 C3.76470588,7.30126619 3.344,6.86301374 2.82352941,6.86301374 L1.88235294,6.86301374 L1.88235294,1.96086107 L11.2941176,1.96086107 L11.2941176,6.86301374 L10.3529412,6.86301374 C9.83247059,6.86301374 9.41176471,7.30126619 9.41176471,7.84344428 C9.41176471,8.38562237 9.83247059,8.82387481 10.3529412,8.82387481 L12.2352941,8.82387481 C12.7557647,8.82387481 13.1764706,8.38562237 13.1764706,7.84344428 L13.1764706,0.980430535 C13.1764706,0.438252449 12.7557647,0 12.2352941,0" id="Fill-1"></path>
                <path d="M8.74635264,11.072002 L7.52941151,12.3396987 L7.52941151,7.84344428 C7.52941151,7.30126619 7.10870564,6.86301374 6.58823507,6.86301374 C6.0677645,6.86301374 5.64705863,7.30126619 5.64705863,7.84344428 L5.64705863,12.3396987 L4.4301175,11.072002 C4.06211751,10.6886537 3.467294,10.6886537 3.09929401,11.072002 C2.73129403,11.4553504 2.73129403,12.0749825 3.09929401,12.4583308 L5.92282333,15.3996224 C6.10635273,15.5908064 6.3472939,15.6868886 6.58823507,15.6868886 C6.82917624,15.6868886 7.07011741,15.5908064 7.25364681,15.3996224 L10.0771761,12.4583308 C10.4451761,12.0749825 10.4451761,11.4553504 10.0771761,11.072002 C9.70917614,10.6886537 9.11435263,10.6886537 8.74635264,11.072002" id="Fill-3"></path>
            </g>
        </g>
    </g>
</svg>
