<?xml version="1.0" encoding="UTF-8"?>
<svg width="17px" height="14px" viewBox="0 0 17 14" version="1.1" xmlns="http://www.w3.org/2000/svg" xmlns:xlink="http://www.w3.org/1999/xlink">
    <!-- Generator: sketchtool 60.1 (101010) - https://sketch.com -->
    <g id="Asset-Artboard-Page" stroke="none" stroke-width="1" fill="none" fill-rule="evenodd" fill-opacity="0.8">
        <g id="Add-list-add" transform="translate(0.674556, 0.000000)" fill="#0C0C0D">
            <g id="Group-5-Copy" transform="translate(8.000000, 7.000000) scale(-1, 1) rotate(270.000000) translate(-8.000000, -7.000000) translate(1.411765, -1.500000)">
                <path d="M12.2352941,0 L0.941176471,0 C0.420705882,0 0,0.447 0,1 L0,8 C0,8.553 0.420705882,9 0.941176471,9 L2.82352941,9 C3.344,9 3.76470588,8.553 3.76470588,8 C3.76470588,7.447 3.344,7 2.82352941,7 L1.88235294,7 L1.88235294,2 L11.2941176,2 L11.2941176,7 L10.3529412,7 C9.83247059,7 9.41176471,7.447 9.41176471,8 C9.41176471,8.553 9.83247059,9 10.3529412,9 L12.2352941,9 C12.7557647,9 13.1764706,8.553 13.1764706,8 L13.1764706,1 C13.1764706,0.447 12.7557647,0 12.2352941,0" id="Fill-1"></path>
                <path d="M7.52941151,13.586 L7.52941151,9 C7.52941151,8.447 7.10870564,8 6.58823507,8 C6.0677645,8 5.64705863,8.447 5.64705863,9 L5.64705863,13.586 L4.4301175,12.293 C4.06211751,11.902 3.467294,11.902 3.09929401,12.293 C2.73129403,12.684 2.73129403,13.316 3.09929401,13.707 L5.92282333,16.707 C6.10635273,16.902 6.3472939,17 6.58823507,17 C6.82917624,17 7.07011741,16.902 7.25364681,16.707 L10.0771761,13.707 C10.4451761,13.316 10.4451761,12.684 10.0771761,12.293 C9.70917614,11.902 9.11435263,11.902 8.74635264,12.293 L7.52941151,13.586 Z" id="Fill-3" transform="translate(6.588235, 12.500000) scale(1, -1) translate(-6.588235, -12.500000) "></path>
            </g>
        </g>
    </g>
</svg>
