<?xml version="1.0" encoding="UTF-8"?>
<svg width="28px" height="24px" viewBox="0 0 28 24" version="1.1" xmlns="http://www.w3.org/2000/svg" xmlns:xlink="http://www.w3.org/1999/xlink">
    <!-- Generator: Sketch 53.2 (72643) - https://sketchapp.com -->
    <title>Location - 32 - Detailed</title>
    <desc>Created with Sketch.</desc>
    <defs>
        <path d="M26,0 L24,2 L24,6 L20,6 L20,2 L18,0 L16,2 L16,6 L12,6 L12,2 L10,0 L8,2 L8,6 L4,6 L4,2 L2,0 L0,2 L0,24 L4,24 L4,20 L8,20 L8,24 L12,24 L12,20 L16,20 L16,24 L20,24 L20,20 L24,20 L24,24 L28,24 L28,2 L26,0 Z M4,18 L4,8 L8,8 L8,18 L4,18 Z M12,18 L12,8 L16,8 L16,18 L12,18 Z M20,18 L20,8 L24,8 L24,18 L20,18 Z" id="path-1"></path>
    </defs>
    <g id="Page-1" stroke="none" stroke-width="1" fill="none" fill-rule="evenodd">
        <g id="Artboard" transform="translate(-374.000000, -1121.000000)">
            <g id="Panels-/-Notifications-/-Location" transform="translate(354.000000, 1092.000000)">
                <g id="Fence" transform="translate(20.000000, 29.000000)">
                    <mask id="mask-2" fill="white">
                        <use xlink:href="#path-1"></use>
                    </mask>
                    <use id="Shape" fill="#000000" fill-rule="nonzero" xlink:href="#path-1"></use>
                    <g id="Color-/-Photon-/-Secondary---Grey-90-60%" mask="url(#mask-2)" fill="#0C0C0D" fill-opacity="0.6" fill-rule="evenodd">
                        <rect id="Rectangle" x="0" y="0" width="28" height="24"></rect>
                    </g>
                </g>
            </g>
        </g>
    </g>
</svg>