<?xml version="1.0" encoding="UTF-8"?>
<svg width="14px" height="12px" viewBox="0 0 14 12" version="1.1" xmlns="http://www.w3.org/2000/svg" xmlns:xlink="http://www.w3.org/1999/xlink">
    <!-- Generator: Sketch 54.1 (76490) - https://sketchapp.com -->
    <title>Grey Fence</title>
    <desc>Created with Sketch.</desc>
    <defs>
        <path d="M13,2 L12,3 L12,5 L10,5 L10,3 L9,2 L8,3 L8,5 L6,5 L6,3 L5,2 L4,3 L4,5 L2,5 L2,3 L1,2 L0,3 L0,14 L2,14 L2,12 L4,12 L4,14 L6,14 L6,12 L8,12 L8,14 L10,14 L10,12 L12,12 L12,14 L14,14 L14,3 L13,2 Z M2,11 L2,6 L4,6 L4,11 L2,11 Z M6,11 L6,6 L8,6 L8,11 L6,11 Z M10,11 L10,6 L12,6 L12,11 L10,11 Z" id="path-1"></path>
    </defs>
    <g id="Symbols" stroke="none" stroke-width="1" fill="none" fill-rule="evenodd">
        <g id="Badge---34x34" transform="translate(-10.000000, -10.000000)">
            <g id="Badge---Large" transform="translate(0.000000, -0.000000)">
                <g id="Grey-Fence" transform="translate(10.000000, 8.000000)">
                    <mask id="mask-2" fill="white">
                        <use xlink:href="#path-1"></use>
                    </mask>
                    <use id="Shape" fill="#FFFFFF" fill-rule="evenodd" xlink:href="#path-1"></use>
                </g>
            </g>
        </g>
    </g>
</svg>